<svg width="270" height="270" viewBox="0 0 270 270" fill="none" xmlns="http://www.w3.org/2000/svg">
<g clip-path="url(#clip0_107_1063)">
<path d="M0 96.9121C0 96.125 0.574267 95.4869 1.28266 95.4869H3.84798V118.29H1.28266C0.574267 118.29 0 117.652 0 116.865V96.9121Z" fill="white"/>
<path d="M0 141.093C0 140.306 0.574267 139.667 1.28266 139.667H3.84798V185.273H1.28266C0.574267 185.273 0 184.635 0 183.848V141.093Z" fill="white"/>
<path d="M266.152 154.632H268.717C269.426 154.632 270 155.27 270 156.057V225.891C270 226.678 269.426 227.316 268.717 227.316H266.152V154.632Z" fill="white"/>
<path d="M0 198.812C0 198.025 0.574267 197.387 1.28266 197.387H3.84798V242.993H1.28266C0.574267 242.993 0 242.355 0 241.568V198.812Z" fill="white"/>
<path d="M1.92398 47.0309C1.92398 21.0564 20.8748 0 44.2518 0H225.748C249.125 0 268.076 21.0564 268.076 47.0309V558.67C268.076 584.644 249.125 605.701 225.748 605.701H44.2518C20.8748 605.701 1.92398 584.644 1.92398 558.67V47.0309Z" fill="#BEC9D4"/>
<path d="M5.13062 47.0309C5.13062 23.0242 22.6458 3.56299 44.2518 3.56299H225.748C247.354 3.56299 264.869 23.0243 264.869 47.0309V558.67C264.869 582.677 247.354 602.138 225.748 602.138H44.2518C22.6458 602.138 5.13062 582.677 5.13062 558.67V47.0309Z" fill="white"/>
<path d="M119.287 22.3278C119.287 20.7536 120.436 19.4774 121.853 19.4774H147.506C148.923 19.4774 150.071 20.7536 150.071 22.3278C150.071 23.902 148.923 25.1781 147.506 25.1781H121.853C120.436 25.1781 119.287 23.902 119.287 22.3278Z" fill="#BEC9D4"/>
<path d="M167.174 22.3278C167.174 25.4762 164.877 28.0285 162.043 28.0285C159.209 28.0285 156.912 25.4762 156.912 22.3278C156.912 19.1794 159.209 16.6271 162.043 16.6271C164.877 16.6271 167.174 19.1794 167.174 22.3278Z" fill="#BEC9D4"/>
<path d="M164.608 22.3278C164.608 23.902 163.46 25.1781 162.043 25.1781C160.626 25.1781 159.478 23.902 159.478 22.3278C159.478 20.7536 160.626 19.4774 162.043 19.4774C163.46 19.4774 164.608 20.7536 164.608 22.3278Z" fill="#BEC9D4"/>
<path d="M219.335 0H223.183V3.56295H219.335V0Z" fill="#BEC9D4"/>
<path d="M1.92398 61.9952H5.13063V66.2708H1.92398V61.9952Z" fill="#BEC9D4"/>
<path d="M264.869 61.9952H268.076V66.2708H264.869V61.9952Z" fill="#BEC9D4"/>
<g clip-path="url(#clip1_107_1063)">
<path d="M43.7492 13.5392C27.3799 13.5386 14.1097 28.2734 14.1094 46.45V559.249C14.1088 577.426 27.3794 592.162 43.7492 592.162H224.968C241.338 592.162 254.609 577.426 254.608 559.249V46.45C254.608 28.2734 241.338 13.5386 224.968 13.5392H204.062C200.598 13.5392 198.806 13.9369 198.806 20.038C198.806 26.1391 195.401 36.4192 183.218 36.4192H85.4995C73.3162 36.4192 69.9114 26.1391 69.9114 20.038C69.9114 13.9369 68.1199 13.5392 64.6561 13.5392H43.7492Z" fill="#E1E7ED"/>
</g>
</g>
<defs>
<clipPath id="clip0_107_1063">
<rect width="270" height="270" fill="white"/>
</clipPath>
<clipPath id="clip1_107_1063">
<rect width="240.499" height="578.622" fill="white" transform="translate(14.1094 13.5392)"/>
</clipPath>
</defs>
</svg>