<svg width="45" height="41" viewBox="0 0 45 41" fill="none" xmlns="http://www.w3.org/2000/svg">
<path d="M40 5C42.7344 5 45 7.26562 45 10V30C45 32.8125 42.7344 35 40 35H5C2.1875 35 0 32.8125 0 30V10C0 7.26562 2.1875 5 5 5H40ZM35 10H10C10 12.8125 7.73438 15 5 15V25C7.73438 25 10 27.2656 10 30H35C35 27.2656 37.1875 25 40 25V15C37.1875 15 35 12.8125 35 10Z" fill="#CDF2B6"/>
<path d="M40 15V25C37.1875 25 35 27.2656 35 30H10C10 27.2656 7.73438 25 5 25V15C7.73438 15 10 12.8125 10 10H35C35 12.8125 37.1875 15 40 15ZM22.5 27.5C26.6406 27.5 30 24.1406 30 20C30 15.8594 26.6406 12.5 22.5 12.5C18.2812 12.5 15 15.8594 15 20C15 24.1406 18.2812 27.5 22.5 27.5Z" fill="#60BD26"/>
</svg>
