<svg width="81" height="32" viewBox="0 0 81 32" fill="none" xmlns="http://www.w3.org/2000/svg">
<g clip-path="url(#clip0_11711_29090)">
<path d="M31.0742 5.41204C31.0742 4.45177 30.8237 3.54995 30.2726 2.73999C29.2789 1.28706 27.9346 0.468739 26.1643 0.460389C19.2253 0.443689 12.2863 0.452038 5.34735 0.452038C4.87139 0.452038 4.40378 0.52719 3.95287 0.669143C1.90708 1.31211 0.504249 3.18254 0.495899 5.32854C0.487549 8.86066 0.495899 12.3844 0.495899 15.9165C0.495899 19.3234 0.495899 22.7386 0.495899 26.1455C0.495899 26.4795 0.487549 26.8135 0.53765 27.1475C0.896707 29.5774 3.03435 31.4061 5.53105 31.3894C12.3531 31.356 19.1752 31.381 25.989 31.3727C26.3647 31.3727 26.7405 31.3643 27.1079 31.2808C29.4543 30.7631 31.0826 28.734 31.0826 26.2707C31.0826 19.3234 31.0826 12.3677 31.0742 5.41204ZM24.0684 20.9266C23.7929 22.9724 22.6155 24.2751 20.6866 24.9347C19.5343 25.3272 18.3486 25.4942 17.1461 25.5025C14.3655 25.5276 11.5849 25.5192 8.81267 25.5192C8.32001 25.5192 8.31166 25.5109 8.31166 24.9765C8.31166 21.2105 8.31166 17.4446 8.31166 13.6787C8.31166 11.4743 8.31166 9.26146 8.31166 7.05702C8.31166 6.92342 8.32001 6.78146 8.31166 6.63951C8.30331 6.43076 8.41186 6.35561 8.60391 6.36396C8.70411 6.36396 8.80432 6.36396 8.89617 6.36396C11.2593 6.36396 13.6224 6.36396 15.9938 6.36396C17.1628 6.36396 18.3152 6.45581 19.4591 6.72301C19.9768 6.83991 20.4862 7.00692 20.9622 7.24072C22.1729 7.82523 22.9412 8.7688 23.2167 10.0965C23.3754 10.8563 23.4004 11.6246 23.2668 12.3844C23.0748 13.52 22.4401 14.3634 21.4632 14.9646C21.2962 15.0648 21.0958 15.1149 20.9455 15.2986C21.0123 15.3404 21.0457 15.3654 21.0791 15.3738C23.6593 16.3257 24.369 18.7389 24.0684 20.9266Z" fill="#008AFF"/>
<path d="M13.2471 19.5823C13.2471 18.8892 13.2638 18.2045 13.2388 17.5114C13.2304 17.2025 13.339 17.1023 13.648 17.1023C14.6333 17.119 15.6186 17.1106 16.6039 17.119C16.6457 17.119 16.6791 17.119 16.7208 17.1273C19.0171 17.311 19.4764 18.9978 18.9587 20.6428C18.7666 21.244 18.3241 21.6281 17.7479 21.8619C17.3805 22.0122 16.9964 22.0957 16.5956 22.104C15.6102 22.1124 14.6249 22.104 13.6396 22.1291C13.3223 22.1374 13.2304 22.0205 13.2388 21.7199C13.2638 21.0018 13.2471 20.2921 13.2471 19.5823Z" fill="#008AFF"/>
<path d="M13.247 11.6913C13.247 11.1569 13.2554 10.6308 13.247 10.0964C13.2387 9.83756 13.2971 9.69561 13.6061 9.70396C14.5163 9.72066 15.4181 9.70396 16.3283 9.72066C16.6456 9.72901 16.9545 9.79581 17.2468 9.91272C17.8814 10.1716 18.2571 10.6475 18.349 11.3323C18.5494 12.7685 17.8146 13.6787 16.37 13.7371C15.4682 13.7789 14.558 13.7455 13.6479 13.7622C13.3472 13.7705 13.2303 13.6703 13.2387 13.353C13.2637 12.7935 13.247 12.2424 13.247 11.6913Z" fill="#008AFF"/>
<path d="M61.3985 10.8814C61.3233 10.8814 61.2231 10.873 61.0895 10.8647C60.9559 10.8563 60.8139 10.8146 60.6636 10.7561C60.5885 11.1653 60.4549 11.5578 60.2545 11.9335C60.0541 12.3009 59.8036 12.6516 59.5113 12.9773C59.2191 13.3029 58.8767 13.6035 58.5009 13.8708C58.1252 14.1463 57.716 14.3885 57.2902 14.6056L56.3633 13.3363C56.5971 13.2194 56.8392 13.0858 57.073 12.9439C57.3069 12.8019 57.5407 12.6516 57.7578 12.493C57.9749 12.3343 58.1753 12.1673 58.3673 12.0003C58.5594 11.8333 58.718 11.6496 58.86 11.4659C59.0019 11.2822 59.1105 11.0985 59.194 10.9064C59.2775 10.7144 59.3109 10.5223 59.3109 10.3219C59.3109 10.3136 59.3109 10.2969 59.3109 10.2802C59.3109 10.2635 59.3109 10.2384 59.3109 10.2217C59.3109 10.205 59.3109 10.1883 59.3109 10.18C59.3109 10.1716 59.3109 10.1716 59.3109 10.1883V10.1967C59.2859 10.0046 59.2524 9.82092 59.2107 9.64557C59.1689 9.47022 59.1105 9.28651 59.052 9.10281C58.9852 8.9191 58.9101 8.72705 58.8266 8.52665C58.7431 8.32624 58.6429 8.10914 58.5343 7.86698L59.9789 7.24072C60.1125 7.64153 60.2378 7.97554 60.3547 8.24274C60.4716 8.50995 60.5885 8.7187 60.697 8.87736C60.8056 9.03601 60.9225 9.15291 61.031 9.21136C61.1396 9.27816 61.2649 9.31156 61.3901 9.31156H61.4152C61.5237 9.31156 61.6239 9.33661 61.7241 9.37837C61.8243 9.42012 61.9078 9.47856 61.9746 9.55372C62.0498 9.62887 62.0999 9.71237 62.1416 9.80422C62.1834 9.89607 62.2084 10.0046 62.2084 10.1048C62.2084 10.2134 62.1834 10.3136 62.1416 10.4138C62.0999 10.514 62.0414 10.5891 61.9746 10.6643C61.9078 10.7394 61.816 10.7895 61.7241 10.8313C61.6239 10.8563 61.5154 10.8814 61.3985 10.8814Z" fill="#008AFF"/>
<path d="M60.5391 10.0881C60.5391 9.97958 60.5558 9.87938 60.5975 9.77917C60.6393 9.67897 60.6977 9.59547 60.7645 9.52867C60.8397 9.45352 60.9232 9.40342 61.015 9.36167C61.1152 9.31992 61.2154 9.30321 61.324 9.30321H61.6997C61.9419 9.30321 62.1673 9.29486 62.3928 9.26981C62.6183 9.24476 62.8103 9.20301 62.9773 9.14456C63.1443 9.07776 63.2863 8.98591 63.3865 8.86901C63.495 8.7521 63.5451 8.59345 63.5535 8.4014C63.5535 8.32625 63.5535 8.26779 63.5535 8.21769C63.5535 8.16759 63.5451 8.10914 63.5284 8.04234C63.5117 7.97554 63.4867 7.88369 63.4533 7.77513C63.4199 7.66658 63.3781 7.50793 63.3197 7.30752L64.7726 6.89837C64.8394 7.05702 64.8979 7.26577 64.948 7.53298C64.9981 7.80019 65.0398 8.08409 65.0649 8.39305C65.0732 8.49325 65.0816 8.59345 65.0983 8.702C65.115 8.81056 65.14 8.91076 65.1818 8.99426C65.2235 9.08611 65.2736 9.16126 65.3404 9.21971C65.4072 9.27816 65.4907 9.30321 65.5993 9.30321C65.7078 9.30321 65.808 9.31992 65.9082 9.36167C66.0084 9.40342 66.0919 9.45352 66.1587 9.52867C66.2339 9.60382 66.284 9.68732 66.3257 9.77917C66.3675 9.87103 66.3925 9.97958 66.3925 10.0881C66.3925 10.1967 66.3675 10.2969 66.3257 10.3971C66.284 10.4973 66.2255 10.5808 66.1504 10.6476C66.0752 10.7227 65.9917 10.7728 65.8999 10.8146C65.808 10.8563 65.7078 10.873 65.5993 10.873C65.282 10.873 65.0064 10.8229 64.781 10.7227C64.5555 10.6225 64.3551 10.4973 64.1964 10.3386C64.0461 10.4388 63.8708 10.5223 63.6787 10.5891C63.4867 10.6559 63.2779 10.706 63.0608 10.7478C62.8437 10.7895 62.6183 10.8229 62.3844 10.8396C62.1506 10.8563 61.9252 10.8647 61.6914 10.8647H61.3156C61.2071 10.8647 61.1069 10.848 61.0067 10.8062C60.9065 10.7645 60.823 10.7144 60.7562 10.6392C60.681 10.5641 60.6309 10.4806 60.5892 10.3887C60.5558 10.3052 60.5391 10.1967 60.5391 10.0881ZM65.4991 5.27843L64.5388 6.2387L63.5869 5.28679L62.6517 6.23035L61.683 5.27008L62.6433 4.30981L63.5952 5.26173L64.5304 4.32652L65.4991 5.27843Z" fill="#008AFF"/>
<path d="M64.8633 10.0881C64.8633 9.98794 64.8883 9.88774 64.9301 9.79589C64.9718 9.70404 65.0303 9.62054 65.1054 9.54539C65.1806 9.47023 65.2724 9.42013 65.3726 9.37003C65.4728 9.31993 65.5814 9.30323 65.6983 9.29488C65.8737 9.29488 66.0407 9.26148 66.191 9.21138C66.3413 9.15293 66.4916 9.04438 66.6252 8.87737C66.7588 8.71037 66.8924 8.47656 67.0093 8.17596C67.1262 7.87535 67.2431 7.47454 67.3516 6.99023L68.6793 7.18229C68.6877 7.14054 68.6793 7.16559 68.6626 7.24909C68.6459 7.33259 68.6125 7.44949 68.5875 7.5998C68.5624 7.7501 68.529 7.92545 68.504 8.10916C68.4789 8.30121 68.4706 8.47656 68.4706 8.65192C68.4706 8.81892 68.4956 8.96922 68.529 9.09447C68.5708 9.21973 68.6376 9.29488 68.7294 9.31993C68.8296 9.34498 68.9298 9.32828 69.03 9.25313C69.1302 9.18633 69.2221 9.08613 69.3056 8.96087C69.3891 8.83562 69.4726 8.68532 69.5477 8.50996C69.6229 8.34296 69.6897 8.16761 69.7481 7.9839C69.8066 7.80855 69.8567 7.62485 69.8984 7.45784C69.9402 7.28249 69.9736 7.13219 69.9986 6.99859L71.318 7.19064C71.3096 7.27414 71.3013 7.38269 71.2846 7.52464C71.2679 7.65825 71.2512 7.80855 71.2428 7.9672C71.2345 8.12586 71.2261 8.28451 71.2261 8.43481C71.2261 8.59346 71.2428 8.73542 71.2762 8.86067C71.3096 8.98592 71.3597 9.09447 71.4265 9.17798C71.4933 9.26148 71.5935 9.30323 71.7188 9.30323C71.8273 9.30323 71.9275 9.26983 72.0027 9.19468C72.0862 9.11953 72.153 9.02767 72.2031 8.91077C72.2615 8.79387 72.3033 8.66027 72.3367 8.50996C72.3701 8.35966 72.3951 8.20101 72.4118 8.0507C72.4285 7.9004 72.4369 7.74175 72.4369 7.59144C72.4369 7.44114 72.4285 7.31589 72.4202 7.19899L73.7646 7.00693L73.9316 8.41811C73.9483 8.56842 73.9984 8.70202 74.0568 8.81892C74.1236 8.93582 74.1988 9.02767 74.2906 9.10282C74.3825 9.17798 74.4743 9.23643 74.5745 9.26983C74.6747 9.31158 74.7666 9.32828 74.8584 9.32828H74.9169C75.0421 9.32828 75.1507 9.34498 75.2509 9.38673C75.3511 9.42848 75.4429 9.47858 75.5097 9.55373C75.5849 9.62888 75.635 9.71239 75.6767 9.80424C75.7185 9.90444 75.7352 10.0046 75.7352 10.1132C75.7352 10.2217 75.7185 10.322 75.6767 10.4222C75.635 10.5224 75.5765 10.5975 75.5014 10.6727C75.4262 10.7395 75.3344 10.7979 75.2258 10.8397C75.1173 10.8814 74.992 10.9065 74.8501 10.9065C74.5244 10.9065 74.2238 10.848 73.9399 10.7395C73.656 10.6226 73.4055 10.4389 73.1967 10.1633C73.18 10.1883 73.155 10.2134 73.1383 10.2301C73.1216 10.2468 73.0965 10.2718 73.0798 10.2885V10.2802C72.8961 10.4723 72.6957 10.6226 72.4619 10.7311C72.2281 10.8397 71.9776 10.8981 71.7021 10.8981C71.4015 10.8981 71.1176 10.8313 70.867 10.7061C70.6165 10.5808 70.3994 10.3971 70.2324 10.18C70.032 10.3971 69.8066 10.5808 69.5561 10.7144C69.3056 10.848 69.0217 10.9232 68.7211 10.9232C68.4372 10.9232 68.1783 10.8564 67.9278 10.7311C67.6856 10.6059 67.4852 10.4305 67.3266 10.2134C67.1429 10.4639 66.9258 10.6393 66.6586 10.7478C66.3914 10.8564 66.0657 10.9065 65.6732 10.9065C65.548 10.9065 65.4311 10.8814 65.3309 10.8397C65.2307 10.7979 65.1388 10.7395 65.0637 10.6727C64.9885 10.6059 64.9301 10.5224 64.8883 10.4222C64.8883 10.3053 64.8633 10.1967 64.8633 10.0881Z" fill="#008AFF"/>
<path d="M79.1939 12.2842L76.7891 13.2863V12.4011L79.1939 11.4492V12.2842Z" fill="#008AFF"/>
<path d="M74.1641 10.0881C74.1641 9.97955 74.1808 9.87935 74.2225 9.7875C74.2643 9.69565 74.3144 9.61215 74.3895 9.54535C74.4563 9.47854 74.5398 9.42009 74.64 9.37834C74.7402 9.33659 74.8404 9.31154 74.949 9.30319C75.1744 9.30319 75.3665 9.26144 75.5335 9.17794C75.7005 9.09443 75.8424 8.97753 75.9677 8.83558C76.093 8.69363 76.2099 8.54332 76.3101 8.36797C76.4103 8.19262 76.5021 8.02561 76.594 7.85026V7.85861C76.6775 7.68326 76.7693 7.49955 76.8695 7.3242C76.9697 7.14885 77.0783 6.98184 77.1952 6.83154C77.3789 6.62279 77.5793 6.45578 77.7964 6.34723C78.0218 6.23033 78.2556 6.17188 78.5062 6.17188C78.8068 6.17188 79.074 6.23033 79.3245 6.35558C79.575 6.48083 79.7921 6.65618 79.9925 6.88164C80.1428 7.05699 80.268 7.26575 80.3599 7.49955C80.4517 7.73336 80.5102 7.97551 80.5436 8.23437V8.22602C80.5603 8.35127 80.577 8.50157 80.577 8.66858C80.577 8.84393 80.5603 9.02763 80.5269 9.19464C80.4935 9.36164 80.4517 9.52864 80.3933 9.67895C80.2847 9.96285 80.1261 10.1883 79.9173 10.3804C79.7086 10.5724 79.4915 10.6977 79.2493 10.7645C79.1658 10.7895 79.0907 10.8062 79.0155 10.8146C78.9404 10.8229 78.8569 10.8229 78.765 10.8229C78.6147 10.8229 78.456 10.8062 78.289 10.7645C78.122 10.7227 77.955 10.681 77.788 10.6142C77.7212 10.5808 77.6461 10.5474 77.5626 10.5056C77.4791 10.4639 77.3956 10.4221 77.3037 10.372C77.2119 10.3219 77.12 10.2718 77.0282 10.2134C76.9363 10.1633 76.8528 10.1048 76.7777 10.0547C76.6441 10.18 76.5105 10.2885 76.3769 10.3887C76.2433 10.4889 76.1013 10.5724 75.9594 10.6392C75.8174 10.706 75.6587 10.7645 75.4917 10.7979C75.3247 10.8313 75.141 10.8563 74.949 10.8563C74.8404 10.8563 74.7402 10.8313 74.64 10.7895C74.5398 10.7478 74.4647 10.6893 74.3895 10.6225C74.3144 10.5557 74.2643 10.4722 74.2225 10.372C74.1808 10.3052 74.1641 10.1967 74.1641 10.0881ZM77.6962 8.77713C77.7964 8.84393 77.9216 8.91073 78.0636 8.96918C78.2055 9.03598 78.3475 9.08608 78.4811 9.13618C78.6147 9.18629 78.7483 9.22804 78.8652 9.26144C78.9821 9.29484 79.074 9.31154 79.1324 9.31154C79.1491 9.31154 79.1575 9.31154 79.1742 9.31154C79.1909 9.31154 79.2076 9.31154 79.2243 9.30319C79.266 9.29484 79.3078 9.24474 79.3412 9.15289C79.3829 9.06103 79.3913 8.93578 79.3829 8.77713C79.3829 8.66858 79.3495 8.55167 79.2911 8.42642C79.2326 8.30117 79.1491 8.17592 79.0573 8.06736C78.9571 7.95881 78.8485 7.85861 78.7233 7.78346C78.598 7.70831 78.4728 7.66656 78.3391 7.66656C78.289 7.66656 78.2306 7.73336 78.1554 7.86696C78.0803 8.00056 77.9717 8.20097 77.8381 8.45982V8.45147L77.6962 8.77713Z" fill="#008AFF"/>
<path d="M39.1137 11.0899C38.7379 11.0899 38.3788 11.0816 38.0281 11.0482C37.6774 11.0231 37.3351 10.9814 36.9927 10.9146C36.6504 10.8478 36.308 10.7643 35.974 10.6557C35.6316 10.5472 35.2809 10.4052 34.9219 10.2299L35.498 8.76025C35.7736 8.8688 36.0324 8.96065 36.2496 9.03581C36.475 9.11096 36.6671 9.17776 36.8257 9.21951C36.8925 9.13601 36.9593 9.03581 37.0345 8.9356C37.1096 8.82705 37.2098 8.7018 37.3184 8.5515C37.3351 8.40119 37.3601 8.26759 37.3685 8.14234C37.3852 8.01709 37.3935 7.90018 37.4019 7.78328C37.4102 7.66638 37.4186 7.55783 37.4186 7.45763C37.4186 7.35742 37.4269 7.24052 37.4269 7.13197C37.4269 6.98167 37.4186 6.78126 37.4102 6.54746C37.4019 6.31365 37.3852 6.06315 37.3601 5.79594C37.3434 5.52874 37.3184 5.25318 37.2933 4.98598C37.2683 4.71877 37.2516 4.45992 37.2265 4.22611C37.2015 3.99231 37.1848 3.80025 37.1597 3.63325C37.1347 3.46625 37.1263 3.36605 37.118 3.31595L38.6962 2.89844L38.7546 3.4245C38.7796 3.66665 38.8047 3.91716 38.8381 4.19271C38.8632 4.46827 38.8882 4.75217 38.9133 5.03608C38.9383 5.31998 38.955 5.62059 38.9717 5.92119C38.9884 6.2218 38.9968 6.51406 39.0051 6.80631C39.1638 6.66436 39.3224 6.53911 39.4727 6.4222C39.623 6.3053 39.79 6.2051 39.957 6.1216C40.124 6.0381 40.3161 5.9713 40.5165 5.92119C40.7169 5.87109 40.9423 5.84604 41.2012 5.83769C41.4601 5.82934 41.7273 5.87109 41.9778 5.94625C42.2366 6.02975 42.4704 6.14665 42.6792 6.3053C42.8879 6.46396 43.0633 6.66436 43.2052 6.89816C43.3472 7.14032 43.439 7.40753 43.4724 7.70813C43.4724 8.08389 43.4307 8.41789 43.3305 8.71015C43.2303 9.00241 43.0967 9.27796 42.9297 9.51176H43.89C43.9985 9.51176 44.0987 9.52847 44.1989 9.57022C44.2991 9.61197 44.3826 9.66207 44.4494 9.73722C44.5246 9.80402 44.5747 9.88752 44.6164 9.98772C44.6582 10.0796 44.6749 10.1881 44.6749 10.2967C44.6749 10.4052 44.6582 10.5054 44.6164 10.6056C44.5747 10.6975 44.5246 10.7893 44.4494 10.8561C44.3743 10.9313 44.2908 10.9814 44.1989 11.0231C44.0987 11.0649 43.9985 11.0899 43.8816 11.0899H42.604C42.5289 11.0899 42.4287 11.0899 42.3034 11.0899C42.1782 11.0899 42.0362 11.0816 41.8859 11.0732C41.7356 11.0649 41.5853 11.0482 41.4267 11.0315C41.268 11.0148 41.1344 10.9814 41.0091 10.9396C40.8588 10.9814 40.7002 11.0064 40.5332 11.0315C40.3662 11.0565 40.2075 11.0649 40.0405 11.0732C39.8735 11.0816 39.7149 11.0899 39.5562 11.0899C39.4059 11.0899 39.2556 11.0899 39.1137 11.0899ZM41.2012 7.43257C41.0008 7.43257 40.7753 7.48267 40.5248 7.59123C40.2743 7.69143 40.0155 7.84173 39.7566 8.02544C39.4978 8.20914 39.2389 8.43459 38.9801 8.69345C38.7295 8.9523 38.4957 9.23621 38.287 9.55351C38.4039 9.56186 38.5208 9.57022 38.6544 9.57857C38.7797 9.58692 38.8966 9.58692 39.0051 9.58692C39.5061 9.58692 39.9487 9.53681 40.3578 9.43661C40.7586 9.33641 41.101 9.20281 41.3766 9.05251C41.6605 8.89385 41.8692 8.72685 42.0195 8.54315C42.1698 8.35944 42.2366 8.17574 42.2283 8.00873C42.2116 7.90853 42.1615 7.82503 42.0863 7.74988C42.0112 7.67473 41.9193 7.62463 41.8108 7.57453C41.7022 7.52443 41.602 7.49938 41.4935 7.47433C41.3682 7.44092 41.2764 7.43257 41.2012 7.43257Z" fill="#008AFF"/>
<path d="M43.0781 10.2967C43.0781 10.1881 43.0948 10.0879 43.1366 9.98774C43.1783 9.89589 43.2284 9.80404 43.3036 9.73724C43.3787 9.66208 43.4622 9.61198 43.5541 9.57023C43.6459 9.52848 43.7545 9.51178 43.863 9.51178H44.2388C44.481 9.51178 44.7064 9.50343 44.9319 9.47838C45.1573 9.45333 45.3494 9.41158 45.5164 9.35313C45.6834 9.28633 45.8253 9.19448 45.9255 9.07757C46.0341 8.96067 46.0842 8.80202 46.0925 8.60996C46.0925 8.53481 46.0925 8.47636 46.0925 8.42626C46.0925 8.37616 46.0842 8.31771 46.0675 8.25091C46.0508 8.18411 46.0257 8.09225 45.9923 7.9837C45.9589 7.87515 45.9172 7.7165 45.8587 7.51609L47.3117 7.10693C47.3785 7.26559 47.4369 7.47434 47.487 7.74155C47.5371 8.0004 47.5789 8.29266 47.6039 8.60161C47.6123 8.70182 47.6206 8.80202 47.6373 8.91057C47.654 9.01912 47.6791 9.11932 47.7208 9.20283C47.7626 9.29468 47.8127 9.36983 47.8795 9.42828C47.9463 9.48673 48.0298 9.51178 48.1383 9.51178C48.2469 9.51178 48.3471 9.52848 48.4473 9.57023C48.5475 9.61198 48.631 9.66208 48.6978 9.73724C48.7729 9.81239 48.823 9.89589 48.8648 9.98774C48.9065 10.0796 48.9316 10.1881 48.9316 10.2967C48.9316 10.4053 48.9065 10.5055 48.8648 10.6057C48.823 10.6975 48.7646 10.7894 48.6894 10.8562C48.6143 10.9313 48.5308 10.9814 48.4389 11.0232C48.3471 11.0649 48.2469 11.0816 48.1383 11.0816C47.821 11.0816 47.5455 11.0315 47.32 10.9313C47.0946 10.8311 46.8942 10.7059 46.7355 10.5472C46.5852 10.6474 46.4182 10.7309 46.2178 10.7977C46.0257 10.8645 45.817 10.9146 45.5999 10.9564C45.3828 10.9981 45.1573 11.0315 44.9235 11.0482C44.6897 11.0649 44.4643 11.0733 44.2388 11.0733H43.863C43.7545 11.0733 43.6543 11.0566 43.5541 11.0148C43.4539 10.9731 43.3704 10.923 43.3036 10.8478C43.2284 10.7727 43.1783 10.6892 43.1366 10.5973C43.1032 10.5138 43.0781 10.4053 43.0781 10.2967ZM47.8461 12.8769L46.8858 13.8372L45.9422 12.8936L45.007 13.8288L44.0384 12.8685L44.9987 11.9083L45.9422 12.8518L46.8775 11.9166L47.8461 12.8769Z" fill="#008AFF"/>
<path d="M47.3555 10.2968C47.3555 10.1882 47.3805 10.088 47.4223 9.98784C47.464 9.89598 47.5225 9.81248 47.5893 9.73733C47.6561 9.66218 47.7396 9.61208 47.8398 9.57033C47.94 9.52858 48.0402 9.50353 48.1487 9.50353H48.1905H48.5078H48.4994C48.608 9.52858 48.7165 9.52023 48.8167 9.46178C48.917 9.41168 49.0005 9.33652 49.0673 9.23632C49.1341 9.13612 49.1925 9.02757 49.2343 8.89396C49.276 8.76036 49.2927 8.64346 49.2927 8.50985C49.3011 8.22595 49.2927 7.86689 49.2844 7.42433C49.276 6.98177 49.2593 6.47241 49.251 5.8879C49.2426 5.35349 49.2343 4.86083 49.2259 4.41827C49.2176 3.97571 49.2009 3.5415 49.1758 3.12399L50.7289 2.84009C50.754 3.04884 50.779 3.28265 50.7957 3.53315C50.8124 3.78366 50.8208 4.04251 50.8291 4.30972C50.8375 4.57692 50.8458 4.85248 50.8458 5.14474C50.8458 5.42864 50.8542 5.7209 50.8542 6.0048C50.8542 6.46406 50.8458 6.91497 50.8375 7.37423C50.8291 7.60804 50.8291 7.84184 50.8208 8.09235C50.8208 8.34285 50.8124 8.58501 50.8124 8.82716C50.8124 8.88561 50.8208 8.95242 50.8291 9.03592C50.8458 9.11942 50.8709 9.20292 50.921 9.27807H50.9126C50.9544 9.33652 51.0128 9.38662 51.088 9.42837C51.1631 9.47012 51.2801 9.49518 51.4387 9.49518C51.5473 9.49518 51.6475 9.52023 51.7477 9.56198C51.8479 9.60373 51.9314 9.66218 51.9982 9.72898C52.0733 9.79578 52.1234 9.87928 52.1735 9.97949C52.2153 10.0713 52.2403 10.1799 52.2403 10.2884C52.2403 10.397 52.2153 10.4972 52.1735 10.5974C52.1318 10.6892 52.0733 10.7811 51.9982 10.8479C51.923 10.9231 51.8395 10.9732 51.7477 11.0149C51.6558 11.0567 51.5473 11.0734 51.4387 11.0734C51.1464 11.0817 50.8792 11.0316 50.6538 10.9231C50.4283 10.8145 50.2279 10.6809 50.0693 10.5222C49.8772 10.6976 49.6685 10.8312 49.4347 10.9231C49.2009 11.0149 48.9671 11.065 48.7249 11.0734H48.1821H48.1404C48.0318 11.0734 47.9316 11.0567 47.8314 11.0149C47.7312 10.9732 47.6477 10.9231 47.5809 10.8479C47.5141 10.7728 47.4557 10.6892 47.4139 10.5974C47.3805 10.5139 47.3555 10.4053 47.3555 10.2968Z" fill="#008AFF"/>
<path d="M50.6211 10.2968C50.6211 10.1883 50.6461 10.0881 50.6879 9.98786C50.7296 9.89601 50.7881 9.80416 50.8549 9.73736C50.9217 9.66221 51.0052 9.6121 51.1054 9.57035C51.2056 9.5286 51.3058 9.5119 51.4144 9.5119H51.9321H52.1575C52.2828 9.5119 52.408 9.50355 52.5416 9.4952C52.6752 9.48685 52.8005 9.4618 52.9174 9.43675C53.0343 9.40335 53.1428 9.3616 53.2347 9.3115C53.3265 9.2614 53.3934 9.18625 53.4351 9.09439C53.4602 9.03594 53.4769 8.94409 53.4769 8.82719C53.4769 8.74369 53.4518 8.62678 53.41 8.46813C53.3599 8.30948 53.3015 8.13413 53.2263 7.93372C53.1512 7.74167 53.0593 7.53291 52.9675 7.32416C52.8673 7.11541 52.7754 6.90665 52.6752 6.72295L54.1031 6.01318C54.195 6.22194 54.2868 6.44739 54.3787 6.6812C54.4705 6.915 54.554 7.15716 54.6292 7.39931C54.7043 7.64147 54.7628 7.88362 54.8045 8.12578C54.8463 8.36793 54.8713 8.59338 54.8713 8.81884C54.8713 9.15285 54.8129 9.4618 54.6876 9.73736C54.5457 10.0463 54.3536 10.3052 54.1115 10.5139C53.8693 10.7227 53.5771 10.873 53.2347 10.9648C53.0343 11.0233 52.8422 11.0567 52.6585 11.065C52.4748 11.0734 52.3078 11.0817 52.1408 11.0817H51.4561H51.4144C51.3058 11.0817 51.2056 11.065 51.1054 11.0233C51.0052 10.9815 50.9217 10.9314 50.8549 10.8563C50.7881 10.7811 50.7296 10.6976 50.6879 10.6058C50.6461 10.5139 50.6211 10.4054 50.6211 10.2968ZM52.884 11.541L53.9946 12.6516L52.884 13.7621L51.7734 12.6516L52.884 11.541Z" fill="#008AFF"/>
<path d="M37.0679 20.8432L37.143 21.8118C37.7526 21.0603 38.5792 20.6929 39.6147 20.6929C40.7252 20.6929 41.4768 21.1271 41.8943 22.0038C42.4955 21.1271 43.3639 20.6929 44.4828 20.6929C45.418 20.6929 46.1111 20.9684 46.562 21.5112C47.0129 22.0539 47.2467 22.8723 47.2467 23.9661V29.4438H44.9421V23.9578C44.9421 23.4651 44.8502 23.1144 44.6582 22.889C44.4661 22.6635 44.1321 22.555 43.6478 22.555C42.9547 22.555 42.4788 22.8806 42.2199 23.5403L42.2283 29.4438H39.932V23.9661C39.932 23.4651 39.8318 23.1061 39.6397 22.889C39.4393 22.6635 39.1137 22.555 38.6377 22.555C37.9864 22.555 37.5104 22.8222 37.2182 23.3649V29.4438H34.9219V20.8432H37.0679Z" fill="#008AFF"/>
<path d="M53.7014 22.989C53.3924 22.9473 53.1169 22.9306 52.8747 22.9306C52.0063 22.9306 51.4385 23.2228 51.1713 23.8073V29.4354H48.875V20.8347H51.046L51.1128 21.8618C51.5721 21.0768 52.2067 20.676 53.025 20.676C53.2755 20.676 53.5177 20.7094 53.7431 20.7846L53.7014 22.989Z" fill="#008AFF"/>
<path d="M62.4175 25.2186C62.4175 26.5964 62.1252 27.6735 61.5324 28.4418C60.9395 29.21 60.1212 29.5941 59.0691 29.5941C58.1338 29.5941 57.3907 29.235 56.8396 28.5253L56.731 29.4354H54.6602V17.2358H56.9565V21.6113C57.4825 20.9934 58.1839 20.6761 59.0524 20.6761C60.0961 20.6761 60.9228 21.0602 61.5157 21.8284C62.1169 22.5966 62.4091 23.6822 62.4091 25.085L62.4175 25.2186ZM60.1212 25.0516C60.1212 24.1832 59.9792 23.5486 59.7037 23.1478C59.4281 22.7469 59.0189 22.5465 58.4678 22.5465C57.733 22.5465 57.232 22.8472 56.9565 23.44V26.8385C57.232 27.4397 57.7497 27.7403 58.4845 27.7403C59.2194 27.7403 59.712 27.3729 59.9458 26.6465C60.0627 26.2958 60.1212 25.7697 60.1212 25.0516Z" fill="#008AFF"/>
<path d="M63.6875 18.6137C63.6875 18.2713 63.8044 17.9874 64.0299 17.7703C64.2637 17.5448 64.5726 17.4363 64.9734 17.4363C65.3659 17.4363 65.6832 17.5448 65.9086 17.7703C66.1424 17.9957 66.2593 18.2713 66.2593 18.6137C66.2593 18.9644 66.1424 19.2483 65.9003 19.4737C65.6581 19.6992 65.3575 19.8077 64.9651 19.8077C64.5726 19.8077 64.272 19.6992 64.0299 19.4737C63.7877 19.2483 63.6875 18.9644 63.6875 18.6137ZM66.1257 29.4355H63.8211V20.8348H66.1257V29.4355Z" fill="#008AFF"/>
<path d="M70.3007 29.4354H67.9961V17.2358H70.3007V29.4354Z" fill="#008AFF"/>
<path d="M72.0391 18.6137C72.0391 18.2713 72.156 17.9874 72.3814 17.7703C72.6152 17.5448 72.9242 17.4363 73.325 17.4363C73.7174 17.4363 74.0347 17.5448 74.2602 17.7703C74.494 17.9957 74.6109 18.2713 74.6109 18.6137C74.6109 18.9644 74.494 19.2483 74.2519 19.4737C74.0097 19.6992 73.7091 19.8077 73.3166 19.8077C72.9242 19.8077 72.6236 19.6992 72.3814 19.4737C72.1393 19.2483 72.0391 18.9644 72.0391 18.6137ZM74.4857 29.4355H72.181V20.8348H74.4857V29.4355Z" fill="#008AFF"/>
<path d="M78.9766 18.7222V20.8431H80.5715V22.5298H78.9766V26.8218C78.9766 27.1391 79.0351 27.3646 79.1603 27.4982C79.2856 27.6318 79.5194 27.707 79.8617 27.707C80.1122 27.707 80.3878 27.7237 80.5715 27.6903V29.3603C80.1289 29.4939 79.6196 29.5941 79.1436 29.5941C77.532 29.5941 76.7137 28.7841 76.672 27.1558V22.5215H75.3359V20.8348H76.672V18.7222H78.9766Z" fill="#008AFF"/>
</g>
<defs>
<clipPath id="clip0_11711_29090">
<rect width="80.7273" height="32" fill="white" transform="translate(0.273438)"/>
</clipPath>
</defs>
</svg>
