<?xml version="1.0" standalone="no"?>
<!DOCTYPE svg PUBLIC "-//W3C//DTD SVG 20010904//EN"
 "http://www.w3.org/TR/2001/REC-SVG-20010904/DTD/svg10.dtd">
<svg version="1.0" xmlns="http://www.w3.org/2000/svg"
 width="1899.000000pt" height="377.000000pt" viewBox="0 0 1899.000000 377.000000"
 preserveAspectRatio="xMidYMid meet">

<g transform="translate(0.000000,377.000000) scale(0.100000,-0.100000)"
fill="#000000" stroke="none">
<path d="M10 3646 c0 -110 2 -125 17 -130 29 -8 228 -52 388 -86 83 -17 166
-36 185 -41 l35 -9 2 -285 c2 -264 1 -285 -15 -285 -9 0 -60 7 -112 16 -52 8
-124 19 -160 25 -36 5 -125 20 -199 32 -88 15 -134 19 -137 12 -2 -5 -4 -655
-6 -1443 l-3 -1432 9493 0 9492 0 0 1875 0 1875 -840 0 -840 0 0 -80 c0 -64
-3 -80 -15 -80 -12 0 -15 -16 -15 -80 l0 -80 -40 0 -40 0 0 -40 c0 -22 -4 -40
-10 -40 -5 0 -10 -18 -10 -40 0 -29 -4 -40 -15 -40 -11 0 -15 -11 -15 -40 0
-22 5 -40 10 -40 6 0 10 -18 10 -40 0 -33 -3 -40 -20 -40 -17 0 -20 7 -20 40
0 29 -4 40 -15 40 -12 0 -15 -16 -15 -80 0 -64 -3 -80 -15 -80 -12 0 -15 -20
-15 -120 0 -100 -2 -120 -15 -120 -12 0 -15 18 -15 105 0 58 -4 105 -8 105
-10 0 -42 -33 -42 -43 0 -4 7 -7 15 -7 11 0 15 -11 15 -40 0 -29 -4 -40 -15
-40 -12 0 -15 -20 -15 -120 l0 -120 -55 0 -55 0 0 40 c0 22 -4 40 -10 40 -6 0
-10 -33 -10 -80 l0 -80 -30 0 c-28 0 -30 -2 -30 -39 0 -39 1 -40 38 -44 28 -3
23 -4 -18 -5 -30 -1 -89 -5 -130 -10 -41 -5 -123 -8 -182 -5 -91 3 -108 1
-108 -11 0 -12 18 -16 83 -19 85 -3 -116 -9 -395 -11 -123 -1 -149 2 -154 14
-5 12 -8 11 -14 -5 -8 -19 -9 -19 -9 3 -1 17 -7 22 -28 22 l-28 0 24 -19 23
-18 -21 -43 c-12 -24 -21 -63 -21 -87 l0 -43 357 0 c217 0 402 -5 472 -12
l116 -13 -150 -8 c-82 -4 -285 -8 -450 -10 -286 -2 -300 -3 -297 -21 2 -11 -1
-16 -10 -14 -7 3 -12 12 -10 22 2 9 -4 16 -13 16 -19 0 -20 -36 0 -44 8 -3 15
-11 14 -18 0 -10 -2 -10 -6 0 -2 6 -9 12 -14 12 -6 0 -9 -36 -8 -85 l2 -85
191 -2 c291 -3 306 -4 318 -16 7 -7 4 -14 -11 -24 -16 -10 -21 -23 -21 -55 0
-36 -3 -43 -20 -43 -18 0 -20 -7 -20 -80 0 -47 4 -80 10 -80 6 0 10 -25 10
-55 l0 -55 -40 0 c-36 0 -40 -2 -40 -25 0 -22 -4 -25 -40 -25 l-40 0 0 40 c0
22 -4 40 -10 40 -5 0 -10 -18 -10 -40 l0 -40 -110 0 -110 0 0 -80 0 -80 -40 0
-40 0 0 -40 0 -40 -40 0 -40 0 0 40 c0 29 -4 40 -15 40 -11 0 -15 -11 -15 -40
0 -36 -2 -40 -25 -40 l-25 0 0 363 c0 199 -2 489 -5 643 l-4 282 31 43 c91
129 263 240 496 320 80 27 83 29 37 24 -141 -17 -390 -115 -505 -200 -27 -20
-79 -68 -115 -107 l-65 -70 0 -769 0 -769 468 -1 c683 -1 914 -8 927 -30 7
-10 -12 -12 -90 -12 -38 0 -41 -1 -13 -4 35 -4 55 -24 42 -44 -3 -5 -45 -9
-93 -9 -83 0 -89 -1 -114 -28 -15 -16 -24 -31 -20 -35 3 -4 1 -7 -5 -7 -7 0
-12 -7 -12 -15 0 -12 -16 -15 -80 -15 -73 0 -80 -2 -80 -20 0 -15 7 -20 28
-20 15 0 34 -5 42 -11 11 -7 -3 -9 -50 -5 l-65 6 85 -20 c47 -10 119 -26 160
-35 41 -9 89 -20 106 -25 17 -6 41 -10 55 -10 29 0 208 -45 217 -55 4 -4 -22
-4 -58 -1 -36 3 -57 3 -47 0 29 -9 8 -24 -34 -24 -21 0 -39 -4 -39 -10 0 -5
-18 -10 -40 -10 -38 0 -40 -2 -40 -30 0 -28 -2 -30 -40 -30 -22 0 -40 -4 -40
-10 0 -5 -18 -10 -40 -10 -33 0 -40 -3 -40 -20 0 -17 -7 -20 -40 -20 -22 0
-40 -4 -40 -10 0 -6 -33 -10 -80 -10 -47 0 -80 -4 -80 -10 0 -5 -18 -10 -40
-10 -33 0 -40 -3 -40 -20 0 -17 -7 -20 -40 -20 -22 0 -40 5 -40 10 0 6 -18 10
-40 10 -28 0 -40 -4 -40 -14 0 -10 -22 -16 -80 -21 -44 -4 -80 -11 -80 -16 0
-5 -18 -9 -40 -9 -32 0 -40 -4 -40 -18 0 -17 -12 -20 -120 -26 -80 -4 -132
-12 -156 -23 -27 -14 -37 -15 -43 -5 -9 15 -37 6 -45 -13 -4 -10 -21 -7 -78
15 -40 16 -83 29 -95 30 -12 0 -23 3 -25 8 -2 4 -37 18 -78 31 -41 14 -79 28
-85 32 -5 4 -26 10 -45 14 -19 4 -46 13 -60 20 -14 7 -36 16 -50 20 -22 7 -23
6 -8 -9 9 -9 24 -16 32 -16 9 0 16 -3 16 -8 0 -4 15 -13 33 -21 124 -51 167
-73 167 -83 0 -5 6 -7 13 -5 7 1 11 -7 10 -20 -2 -15 3 -23 13 -23 8 0 12 4 9
10 -3 5 3 10 14 10 29 0 26 -19 -5 -30 -35 -14 -85 -13 -64 0 10 7 -10 10 -67
10 -52 0 -83 -4 -85 -11 -2 -7 -36 -14 -81 -17 -42 -2 -77 -9 -77 -13 0 -5
-18 -9 -40 -9 -26 0 -40 4 -40 13 0 11 -11 12 -52 5 -29 -5 -173 -14 -320 -20
-148 -6 -268 -15 -268 -19 0 -4 -90 -6 -200 -5 -161 2 -200 0 -200 -11 0 -19
-1055 -19 -1063 0 -2 7 -23 22 -46 32 -22 11 -41 23 -41 28 0 4 -6 7 -13 7 -7
0 -19 9 -27 20 -8 11 -21 20 -29 20 -7 0 -23 11 -35 24 -21 24 -21 25 -44 6
l-24 -20 47 -47 c25 -27 54 -57 64 -68 19 -20 18 -20 -1399 -17 l-1418 2 -6
23 c-3 12 -6 48 -6 80 0 31 -4 57 -10 57 -5 0 -10 -5 -10 -11 0 -6 -7 -17 -15
-25 -13 -14 -15 -13 -15 10 0 41 -29 31 -50 -16 -11 -24 -20 -50 -20 -60 0 -9
-9 -27 -21 -40 l-21 -23 -942 3 -943 2 -12 55 c-13 58 -20 64 -45 39 -15 -14
-16 -14 -16 5 0 20 -6 21 -89 21 -87 0 -89 0 -100 -27 -6 -16 -12 -41 -14 -58
-4 -29 -5 -30 -66 -33 l-62 -3 8 38 c4 21 7 52 8 68 l0 30 -93 5 c-86 5 -112
0 -112 -22 0 -4 3 -7 8 -7 26 4 33 -2 17 -18 -14 -13 -18 -14 -25 -2 -9 14 -9
14 -25 -36 -4 -12 -27 -15 -132 -15 -115 1 -126 2 -109 15 11 8 16 15 11 15
-13 0 55 49 78 56 10 3 69 45 131 92 62 48 125 96 140 107 72 51 78 57 66 69
-8 8 -13 7 -20 -4 -9 -14 -14 -7 -11 13 1 5 -14 -3 -32 -17 -19 -14 -37 -26
-42 -26 -4 0 -15 -8 -24 -18 -9 -10 -24 -21 -35 -25 -10 -4 -16 -13 -13 -21 8
-21 -40 -51 -58 -36 -9 8 -15 8 -20 0 -3 -6 -10 -8 -15 -5 -4 3 -13 -2 -20
-11 -7 -8 -19 -13 -27 -10 -7 3 -13 1 -13 -4 0 -5 -7 -16 -16 -25 -10 -9 -17
-29 -16 -44 0 -24 -3 -27 -32 -28 -18 -1 -51 -12 -73 -26 -118 -75 -133 -77
-633 -83 -326 -4 -369 -3 -402 12 -36 16 -78 16 -120 -1 -14 -6 -18 -2 -18 14
0 12 -9 32 -21 44 -17 18 -31 22 -86 22 l-66 0 -11 -40 c-9 -29 -17 -41 -34
-43 -12 -2 -22 -8 -22 -13 0 -6 -5 -7 -11 -3 -11 6 -307 20 -633 28 -108 3
-151 8 -157 17 -5 9 -34 14 -88 14 -61 1 -85 5 -99 19 -24 21 -92 34 -92 17 0
-7 -21 -11 -56 -11 -34 0 -53 4 -49 10 4 6 -8 10 -29 10 -20 0 -36 4 -36 9 0
11 86 53 158 77 28 10 52 21 52 25 0 4 8 10 18 12 16 4 16 5 -1 6 -10 0 -16 5
-13 10 3 5 21 7 40 4 19 -2 37 0 40 5 9 15 -64 13 -104 -2 -55 -21 -217 -66
-239 -66 -11 0 -23 -5 -26 -10 -3 -6 -19 -10 -34 -10 -16 0 -42 -7 -57 -15
-31 -16 -62 -11 -80 13 -9 12 -24 14 -72 9 -34 -3 -65 -1 -68 4 -3 5 0 9 5 9
8 0 7 7 -1 20 -9 13 -22 19 -47 18 -27 -1 -40 6 -63 30 -25 29 -28 30 -28 12
0 -41 -19 -9 -25 44 -9 71 -1 92 46 119 21 12 39 27 39 33 0 7 7 15 16 18 28
11 13 49 -24 58 -18 5 -42 18 -52 28 -22 22 -35 86 -20 95 6 4 10 34 10 68 0
34 3 79 6 100 l7 37 435 0 436 0 -45 32 c-24 18 -45 36 -47 40 -2 5 -8 8 -14
8 -5 0 -35 19 -66 43 -31 23 -91 65 -132 92 -41 27 -81 55 -88 62 -7 7 -17 13
-21 13 -4 0 -17 8 -29 18 -11 9 -57 42 -101 72 -45 30 -97 67 -117 83 -33 24
-38 25 -48 11 -11 -14 -18 -14 -55 -3 -34 10 -41 17 -39 33 2 13 9 20 20 18 9
-1 19 2 23 8 3 6 -3 10 -15 10 -12 0 -19 4 -16 9 3 4 -11 17 -32 27 -46 24
-62 38 -62 58 0 30 -109 96 -160 96 -47 0 -66 -15 -85 -65 -18 -46 -35 -59
-35 -27 1 22 35 98 49 106 6 4 11 16 11 27 0 12 -4 17 -11 14 -6 -4 -20 2 -32
13 -12 11 -42 32 -67 48 -25 16 -71 48 -102 71 -31 24 -61 43 -67 43 -6 0 -11
3 -11 8 0 4 -14 15 -31 24 -18 11 -27 22 -23 29 5 8 3 9 -6 4 -7 -4 -15 -3
-19 2 -3 5 -30 22 -59 38 -28 15 -51 33 -50 39 3 19 -25 66 -38 66 -8 0 -11
-6 -8 -15 5 -11 2 -13 -10 -9 -9 3 -13 11 -9 17 4 6 0 8 -10 4 -8 -3 -21 1
-27 9 -7 8 -9 14 -4 14 5 0 7 22 6 49 -3 38 -7 48 -20 47 -15 -1 -17 22 -20
232 -2 227 -2 232 18 232 17 0 20 7 20 43 0 41 -2 45 -40 63 -22 10 -40 23
-40 27 0 10 3 9 57 -23 24 -14 43 -31 43 -38 0 -7 4 -10 10 -7 5 3 20 -1 32
-10 l23 -17 -26 6 c-19 4 -29 1 -33 -9 -8 -21 17 -29 44 -15 17 9 26 8 43 -4
46 -32 57 -44 57 -59 0 -15 28 -32 38 -22 3 2 -3 7 -12 11 -9 3 -16 10 -16 16
0 5 13 0 29 -11 16 -12 34 -21 40 -21 6 0 11 -3 11 -7 0 -5 20 -21 45 -36 25
-16 43 -33 39 -38 -3 -5 2 -6 11 -2 10 3 20 1 24 -4 3 -6 31 -25 61 -43 71
-43 91 -60 83 -73 -3 -6 -1 -7 5 -3 6 4 62 -28 124 -70 62 -43 178 -122 258
-175 144 -97 511 -346 905 -614 l206 -140 307 -5 c299 -5 308 -6 344 -28 43
-26 73 -66 83 -105 6 -20 3 -27 -8 -27 -8 0 -18 -7 -21 -16 -10 -26 -7 -79 6
-92 21 -21 38 -13 38 18 0 30 15 41 22 18 3 -8 14 -5 33 11 28 21 30 21 43 4
11 -15 14 -16 22 -3 15 23 13 27 -27 55 -38 25 -39 34 -1 14 19 -10 20 -9 14
17 -13 53 -31 78 -74 109 l-44 30 -321 5 c-321 5 -322 5 -362 30 -71 44 -310
212 -321 226 -12 15 -63 52 -154 111 -30 20 -57 39 -60 43 -5 6 -84 63 -164
116 -17 12 -37 29 -45 38 -7 9 -20 16 -28 16 -7 0 -16 7 -19 15 -4 8 -11 15
-16 15 -6 0 -38 21 -72 46 -33 26 -66 48 -72 51 -7 2 -10 14 -7 26 4 20 3 20
-9 5 -13 -15 -16 -15 -37 1 -19 14 -21 22 -13 37 9 17 6 19 -22 20 -17 1 -23
-1 -13 -3 9 -2 17 -9 17 -14 0 -12 -6 -11 -28 2 -22 14 -18 99 4 99 19 0 18
14 -4 33 -12 11 -36 17 -65 17 l-47 0 0 55 c0 30 5 55 10 55 6 0 10 33 10 80
0 47 -4 80 -10 80 -5 0 -10 -18 -10 -40 0 -29 -4 -40 -15 -40 -12 0 -15 16
-15 80 0 64 -3 80 -15 80 -11 0 -15 11 -15 40 0 28 -4 40 -14 40 -10 0 -16
-22 -21 -80 -5 -60 -11 -80 -22 -80 -12 0 -14 -21 -11 -125 2 -90 0 -125 -9
-125 -6 0 -47 27 -91 59 -44 32 -99 72 -123 87 -24 16 -46 31 -49 34 -3 3 -25
21 -50 40 -25 19 -46 38 -48 42 -2 4 -10 8 -18 8 -8 0 -14 4 -14 10 0 5 8 7
18 4 12 -4 10 1 -8 18 -31 29 -41 108 -14 108 11 0 14 5 10 16 -8 20 29 17
178 -15 69 -14 116 -19 157 -14 39 4 59 2 59 -5 0 -6 -15 -9 -37 -7 l-38 5 40
-14 c28 -9 41 -19 43 -35 2 -11 7 -19 12 -16 5 3 6 13 3 21 -3 9 0 34 8 57 10
31 11 41 1 45 -17 5 -15 42 3 42 8 0 15 5 15 10 0 6 -9 10 -20 10 -11 0 -20 7
-20 15 0 8 -9 15 -20 15 -11 0 -20 7 -20 15 0 8 7 15 15 15 11 0 15 11 15 40
0 29 -4 40 -15 40 -11 0 -15 -11 -15 -40 0 -33 -3 -40 -19 -40 -16 0 -20 8
-23 38 -2 24 -8 37 -18 38 -52 3 -50 -1 -50 84 0 64 -3 80 -15 80 -11 0 -15
11 -15 40 0 29 4 40 15 40 21 0 19 14 -6 36 -17 15 -22 16 -29 4 -7 -11 -15
-8 -43 16 -35 28 -36 30 -36 107 -1 61 -4 77 -16 77 -11 0 -15 11 -15 40 0 29
-4 40 -15 40 -11 0 -15 11 -15 40 l0 40 -1645 0 -1645 0 0 -124z m850 -150 c0
-2 -11 -6 -25 -8 -13 -3 -22 -1 -19 3 5 9 44 13 44 5z m80 -17 c10 0 9 -3 -5
-9 -15 -7 -7 -9 30 -7 28 1 56 -2 64 -7 10 -7 12 -6 6 4 -6 9 -4 11 5 5 7 -5
30 -12 49 -16 20 -4 90 -20 156 -37 116 -30 235 -58 415 -101 196 -46 451
-107 685 -165 l250 -61 -1 -338 c-1 -185 -4 -340 -7 -343 -8 -9 -1461 178
-1602 205 -27 5 -70 11 -95 12 l-45 2 45 7 c35 5 38 7 15 9 -22 1 -26 4 -16
10 20 13 6 41 -19 36 -11 -2 -18 0 -15 5 3 5 14 7 24 5 13 -2 20 4 23 20 4 20
0 25 -26 28 -17 3 -6 3 24 1 30 -2 84 -6 120 -9 64 -4 63 -4 -20 10 -47 8
-134 23 -195 32 l-110 18 -3 275 c-1 151 0 281 3 288 3 9 10 10 22 3 19 -10
117 -31 173 -37 19 -2 28 -1 20 2 -8 3 -22 8 -30 11 -10 4 -5 9 15 13 22 6 24
8 9 9 -12 0 -27 8 -34 16 -10 13 -9 15 9 15 11 0 21 3 21 6 0 10 -28 34 -42
35 -7 1 1 5 17 9 l30 8 -30 2 c-16 1 -41 6 -55 10 -18 6 -11 7 21 4 31 -4 49
-2 54 6 5 9 1 10 -16 5 -19 -5 -21 -4 -9 4 8 6 24 9 35 6 11 -2 27 -5 35 -6z
m-130 -119 c8 -5 11 -10 5 -10 -5 0 -17 5 -25 10 -8 5 -10 10 -5 10 6 0 17 -5
25 -10z m2630 -30 c0 -29 -4 -40 -15 -40 -11 0 -15 11 -15 40 0 29 4 40 15 40
11 0 15 -11 15 -40z m-705 -359 c-6 -5 -25 10 -25 20 0 5 6 4 14 -3 8 -7 12
-15 11 -17z m895 -17 c0 -8 -4 -12 -10 -9 -5 3 -10 -1 -10 -9 0 -8 5 -18 10
-21 15 -9 12 -25 -5 -25 -11 0 -15 11 -15 40 0 29 4 40 15 40 8 0 15 -7 15
-16z m-880 -39 c0 -5 -5 -3 -10 5 -5 8 -10 20 -10 25 0 6 5 3 10 -5 5 -8 10
-19 10 -25z m16220 -4 c0 -4 -28 -12 -62 -15 -35 -4 -73 -10 -85 -13 -13 -3
-23 -1 -23 5 0 11 80 29 138 31 17 0 32 -3 32 -8z m-16185 -11 c3 -5 1 -10 -4
-10 -6 0 -11 5 -11 10 0 6 2 10 4 10 3 0 8 -4 11 -10z m15969 -20 c-15 -15
-114 -25 -114 -12 0 11 30 18 90 21 23 1 31 -2 24 -9z m-156 -22 c-5 -15 -156
-39 -164 -26 -7 10 8 16 76 27 80 13 92 13 88 -1z m-15401 -30 c-3 -8 -6 -5
-6 6 -1 11 2 17 5 13 3 -3 4 -12 1 -19z m15153 -2 c0 -10 -19 -17 -62 -22 -81
-11 -88 -11 -90 1 -2 5 26 14 62 21 91 16 90 16 90 0z m-190 -31 c0 -11 -12
-15 -40 -16 -22 -1 -44 -2 -50 -3 -5 -1 -10 4 -10 9 -1 6 14 13 32 16 56 11
68 10 68 -6z m-139 -5 c5 0 9 -6 9 -13 0 -17 -140 -41 -154 -27 -15 15 -4 19
63 26 43 5 58 10 49 16 -9 7 -8 8 5 4 10 -3 23 -6 28 -6z m112 -37 c-7 -2 -19
-2 -25 0 -7 3 -2 5 12 5 14 0 19 -2 13 -5z m-145 -30 c-10 -2 -26 -2 -35 0
-10 3 -2 5 17 5 19 0 27 -2 18 -5z m-68 -43 c0 -5 -7 -10 -16 -10 -8 0 -12 5
-9 10 3 6 10 10 16 10 5 0 9 -4 9 -10z m73 3 c-7 -2 -19 -2 -25 0 -7 3 -2 5
12 5 14 0 19 -2 13 -5z m-606 -335 c-1 -57 -3 -11 -3 102 0 113 2 159 3 103 2
-57 2 -149 0 -205z m-16574 285 c-7 -2 -21 -2 -30 0 -10 3 -4 5 12 5 17 0 24
-2 18 -5z m17117 -3 c-20 -13 -40 -13 -40 0 0 6 12 10 28 10 21 0 24 -2 12
-10z m67 -26 c-3 -3 -12 -4 -19 -1 -8 3 -5 6 6 6 11 1 17 -2 13 -5z m-67 -14
c-20 -13 -40 -13 -40 0 0 6 12 10 28 10 21 0 24 -2 12 -10z m-554 -340 l6 -25
13 25 c12 22 14 -38 13 -430 -1 -250 -3 -436 -5 -412 -3 28 -9 42 -19 42 -10
0 -14 12 -14 39 0 22 -5 43 -11 47 -9 5 -10 130 -6 478 8 541 10 621 14 411 2
-82 5 -161 9 -175z m583 306 c-12 -10 -59 -15 -59 -6 0 5 14 10 32 10 17 0 29
-2 27 -4z m-29 -46 c-20 -13 -53 -13 -45 0 3 6 18 10 33 10 21 0 24 -2 12 -10z
m-14240 -31 c0 -5 -4 -8 -9 -5 -5 4 -11 0 -14 -6 -2 -7 -8 -9 -13 -5 -5 4 -2
12 6 17 20 13 30 12 30 -1z m14230 -49 c0 -5 -7 -10 -15 -10 -8 0 -15 5 -15
10 0 6 7 10 15 10 8 0 15 -4 15 -10z m73 3 c-7 -2 -19 -2 -25 0 -7 3 -2 5 12
5 14 0 19 -2 13 -5z m-14153 -40 c0 -37 -15 -45 -41 -24 -13 11 -18 20 -11 21
6 0 12 -4 12 -10 0 -5 7 -10 15 -10 18 0 20 26 3 33 -8 3 -6 6 5 6 10 1 17 -6
17 -16z m12595 2 c0 -10 -383 -9 -437 1 -17 3 -28 1 -28 -5 0 -6 5 -11 10 -11
6 0 10 -4 10 -10 0 -5 -7 -10 -15 -10 -8 0 -15 5 -15 12 0 6 -3 9 -6 6 -11
-11 17 -50 32 -44 8 3 14 1 14 -3 0 -5 -7 -12 -16 -15 -9 -3 -14 -15 -12 -28
4 -30 -40 -39 -59 -11 -12 15 -15 16 -23 3 -9 -13 -10 -13 -11 0 -3 34 3 75
12 78 5 2 9 12 9 22 0 10 8 21 18 23 37 9 517 2 517 -8z m2145 4 c-20 -6 -16
-8 22 -6 25 1 44 -2 41 -6 -3 -5 -42 -6 -87 -3 -44 2 -68 2 -51 -2 34 -8 -70
-22 -360 -47 -99 -9 -214 -20 -255 -25 -80 -9 -103 -2 -85 26 12 18 10 18 275
34 102 6 196 13 210 15 14 2 77 7 140 11 63 3 117 8 119 10 2 2 16 4 30 3 l26
-1 -25 -9z m-2100 -26 c0 -14 -3 -23 -7 -19 -10 10 -11 46 -1 46 4 0 8 -12 8
-27z m-453 -9 c-3 -3 -12 -4 -19 -1 -8 3 -5 6 6 6 11 1 17 -2 13 -5z m409 -10
c-3 -7 3 -18 12 -23 9 -6 13 -11 7 -11 -5 0 -17 -4 -24 -9 -12 -8 -11 -13 8
-28 22 -18 19 -19 -166 -19 -177 0 -179 0 -30 3 l157 3 0 25 c0 22 -4 25 -40
25 -30 0 -40 -4 -40 -16 0 -13 -16 -15 -119 -12 -66 2 -117 6 -115 9 2 3 21 5
43 4 24 -1 38 2 34 8 -3 5 -30 7 -63 4 -44 -5 -61 -3 -70 8 -15 18 -28 17 198
15 114 -1 172 2 172 9 0 7 -56 12 -157 14 l-158 3 178 1 c149 1 178 -1 173
-13z m-13690 -36 c-10 -6 -22 -6 -26 -2 -5 5 3 10 18 11 22 1 24 0 8 -9z
m13288 -40 c-7 -11 -34 -10 -34 1 0 6 9 9 19 8 11 0 17 -5 15 -9z m-13194 -8
c0 -5 -4 -10 -10 -10 -5 0 -10 5 -10 10 0 6 5 10 10 10 6 0 10 -4 10 -10z
m13240 -89 c0 -12 -72 -22 -84 -11 -6 4 -27 10 -46 13 -19 2 2 5 48 5 45 1 82
-2 82 -7z m-116 -27 c3 -8 -1 -22 -9 -30 -17 -18 -20 -34 -5 -34 6 0 10 -7 10
-15 0 -8 -9 -15 -20 -15 -13 0 -20 -7 -20 -20 0 -12 5 -17 14 -14 8 3 17 1 21
-5 4 -7 -4 -11 -19 -11 -24 0 -26 4 -26 39 0 22 -5 43 -10 46 -6 4 -7 13 -1
23 4 9 6 23 4 30 -3 6 0 12 6 12 6 0 11 -6 11 -12 0 -7 5 -5 11 5 12 21 25 22
33 1z m481 -14 c6 -10 -253 -17 -355 -10 -47 4 -83 8 -80 10 7 5 391 16 413
11 9 -2 19 -7 22 -11z m-445 -25 c0 -8 -4 -15 -10 -15 -5 0 -10 7 -10 15 0 8
5 15 10 15 6 0 10 -7 10 -15z m218 -12 c-27 -2 -69 -2 -95 0 -27 2 -5 3 47 3
52 0 74 -1 48 -3z m170 0 c-10 -2 -26 -2 -35 0 -10 3 -2 5 17 5 19 0 27 -2 18
-5z m-501 -75 c-2 -13 -4 -3 -4 22 0 25 2 35 4 23 2 -13 2 -33 0 -45z m446 53
c76 -1 116 -5 112 -11 -4 -6 -90 -10 -225 -10 l-219 0 -4 -27 c-3 -21 -4 -18
-5 12 l-2 40 113 -1 c61 -1 165 -2 230 -3z m-120 -38 c-7 -2 -19 -2 -25 0 -7
3 -2 5 12 5 14 0 19 -2 13 -5z m214 -9 c-3 -3 -12 -4 -19 -1 -8 3 -5 6 6 6 11
1 17 -2 13 -5z m-12736 -584 c33 -18 18 -70 -21 -70 -24 0 -62 44 -54 63 7 19
45 22 75 7z m-287 -406 c13 -5 5 -17 -36 -59 -32 -33 -58 -51 -67 -47 -10 4
-13 1 -8 -12 4 -10 3 -15 -4 -11 -5 4 -7 14 -5 23 5 14 -2 17 -42 17 -44 0
-47 2 -44 23 2 16 -4 29 -17 39 -12 8 -21 18 -21 24 0 10 218 13 244 3z m144
-103 c1 -22 7 -52 13 -68 11 -30 3 -140 -12 -159 -5 -6 -4 -18 4 -28 12 -16
21 -18 72 -14 21 1 75 -9 81 -14 2 -2 -29 -4 -67 -3 -39 0 -75 -2 -80 -5 -4
-3 -9 -46 -11 -95 -2 -65 -7 -90 -17 -93 -10 -3 -12 1 -9 15 4 16 2 19 -14 15
-11 -3 -28 4 -42 18 -19 17 -34 21 -72 19 -49 -3 -71 13 -43 33 10 7 8 8 -7 4
-31 -9 -50 31 -35 77 9 26 9 41 0 60 -7 15 -8 34 -4 44 4 10 9 24 11 32 1 7
12 22 23 32 12 11 21 23 21 27 0 14 42 34 49 23 4 -6 17 1 33 19 14 17 22 30
18 30 -5 0 -16 -10 -24 -22 -9 -12 -18 -19 -22 -15 -4 3 8 19 26 34 49 41 70
55 70 46 0 -4 5 0 11 10 16 27 26 20 27 -22z m-281 -66 c-30 -26 -47 -32 -47
-15 0 6 7 10 16 10 8 0 22 7 30 15 9 8 18 15 22 15 4 0 -6 -12 -21 -25z m-57
5 c0 -5 -2 -10 -4 -10 -3 0 -8 5 -11 10 -3 6 -1 10 4 10 6 0 11 -4 11 -10z m0
-34 c0 -2 -9 -6 -20 -9 -11 -3 -18 -1 -14 4 5 9 34 13 34 5z m-14 -81 c17 -29
23 -51 19 -63 -13 -29 -12 -50 1 -45 7 3 10 12 6 21 -5 15 -4 15 11 3 21 -16
22 -31 3 -31 -8 0 -17 -12 -20 -26 -7 -25 -8 -25 -31 -10 -13 9 -35 16 -49 16
-14 0 -28 5 -31 10 -4 6 7 10 26 10 32 0 32 0 14 20 -12 13 -21 17 -25 10 -8
-13 -79 19 -80 35 0 6 -20 16 -45 23 -25 7 -45 16 -45 21 0 5 36 14 80 21 44
7 83 16 86 21 3 5 16 9 29 9 18 0 31 -12 51 -45z m13437 28 c-7 -2 -19 -2 -25
0 -7 3 -2 5 12 5 14 0 19 -2 13 -5z m-13578 -141 c-3 -3 -11 0 -18 7 -9 10 -8
11 6 5 10 -3 15 -9 12 -12z m9506 -349 c-12 -20 -14 -14 -5 12 4 9 9 14 11 11
3 -2 0 -13 -6 -23z m3197 0 c-16 -2 -40 -2 -55 0 -16 2 -3 4 27 4 30 0 43 -2
28 -4z m-6031 -40 c-3 -10 -5 -4 -5 12 0 17 2 24 5 18 2 -7 2 -21 0 -30z
m-5570 11 c-3 -3 -12 -4 -19 -1 -8 3 -5 6 6 6 11 1 17 -2 13 -5z"/>
<path d="M960 3410 c0 -22 5 -40 10 -40 6 0 10 18 10 40 0 22 -4 40 -10 40 -5
0 -10 -18 -10 -40z"/>
<path d="M935 3340 c-3 -6 1 -7 9 -4 18 7 21 14 7 14 -6 0 -13 -4 -16 -10z"/>
<path d="M930 3316 c0 -2 7 -6 15 -10 8 -3 15 -1 15 4 0 6 -7 10 -15 10 -8 0
-15 -2 -15 -4z"/>
<path d="M1018 3293 c7 -3 16 -2 19 1 4 3 -2 6 -13 5 -11 0 -14 -3 -6 -6z"/>
<path d="M960 2685 c0 -40 2 -45 23 -44 12 0 16 3 10 6 -8 2 -13 22 -13 44 0
21 -4 39 -10 39 -5 0 -10 -20 -10 -45z"/>
<path d="M1128 2723 c7 -3 16 -2 19 1 4 3 -2 6 -13 5 -11 0 -14 -3 -6 -6z"/>
<path d="M1028 2633 c12 -2 30 -2 40 0 9 3 -1 5 -23 4 -22 0 -30 -2 -17 -4z"/>
<path d="M968 2623 c6 -2 18 -2 25 0 6 3 1 5 -13 5 -14 0 -19 -2 -12 -5z"/>
<path d="M1048 2613 c7 -3 16 -2 19 1 4 3 -2 6 -13 5 -11 0 -14 -3 -6 -6z"/>
<path d="M15897 2336 c-3 -8 -2 -18 3 -21 13 -8 24 15 12 27 -6 6 -11 4 -15
-6z"/>
<path d="M3306 955 c4 -8 10 -12 15 -9 14 8 10 24 -6 24 -9 0 -12 -6 -9 -15z"/>
<path d="M3485 930 c-8 -13 3 -30 18 -29 9 0 9 2 0 6 -7 2 -13 9 -13 15 0 6 7
7 16 4 8 -3 12 -2 9 4 -8 13 -22 13 -30 0z"/>
<path d="M3087 753 c-10 -9 -9 -23 1 -23 5 0 9 7 9 15 0 17 -1 18 -10 8z"/>
<path d="M3131 744 c0 -11 3 -14 6 -6 3 7 2 16 -1 19 -3 4 -6 -2 -5 -13z"/>
<path d="M3111 734 c0 -11 3 -14 6 -6 3 7 2 16 -1 19 -3 4 -6 -2 -5 -13z"/>
<path d="M20 3311 c0 -12 5 -21 10 -21 6 0 10 6 10 14 0 8 -4 18 -10 21 -5 3
-10 -3 -10 -14z"/>
<path d="M16 3112 c-3 -6 -1 -14 5 -17 15 -10 25 3 12 16 -7 7 -13 7 -17 1z"/>
<path d="M16298 2973 c7 -3 16 -2 19 1 4 3 -2 6 -13 5 -11 0 -14 -3 -6 -6z"/>
<path d="M2940 2810 c0 -5 5 -10 10 -10 6 0 10 -9 10 -20 0 -14 7 -20 23 -20
19 1 20 2 6 13 -8 7 -18 20 -22 30 -7 18 -27 24 -27 7z"/>
<path d="M2920 2781 c0 -24 -4 -31 -20 -31 -17 0 -20 -7 -20 -49 0 -53 6 -60
52 -53 26 4 41 22 18 22 -5 0 -10 9 -10 20 0 11 -4 20 -10 20 -5 0 -10 9 -10
20 0 11 5 20 10 20 6 0 10 11 10 24 0 14 -4 28 -10 31 -6 4 -10 -7 -10 -24z"/>
<path d="M3800 2480 c0 -5 7 -10 15 -10 8 0 15 5 15 10 0 6 -7 10 -15 10 -8 0
-15 -4 -15 -10z"/>
<path d="M16160 2450 c0 -5 18 -10 40 -10 22 0 40 5 40 10 0 6 -18 10 -40 10
-22 0 -40 -4 -40 -10z"/>
<path d="M15860 2400 c0 -5 5 -10 10 -10 6 0 10 5 10 10 0 6 -4 10 -10 10 -5
0 -10 -4 -10 -10z"/>
<path d="M2894 2332 c-6 -4 -13 -32 -16 -62 -3 -30 -3 -49 -1 -42 3 6 14 13
26 13 17 1 18 2 5 6 -10 2 -18 13 -18 24 0 11 5 17 10 14 6 -3 10 0 10 7 0 10
2 10 9 -1 7 -11 9 -11 14 0 4 10 6 10 6 2 1 -7 5 -13 10 -13 7 0 8 19 2 53 -1
9 -43 9 -57 -1z"/>
<path d="M3991 2304 c0 -11 3 -14 6 -6 3 7 2 16 -1 19 -3 4 -6 -2 -5 -13z"/>
<path d="M3925 2290 c3 -5 13 -10 21 -10 8 0 14 5 14 10 0 6 -9 10 -21 10 -11
0 -17 -4 -14 -10z"/>
<path d="M4005 2261 c-7 -12 44 -61 63 -61 9 0 3 13 -15 34 -30 37 -38 42 -48
27z"/>
<path d="M2945 2241 c-3 -5 -1 -12 5 -16 5 -3 10 1 10 9 0 18 -6 21 -15 7z"/>
<path d="M2980 2150 c0 -5 5 -10 10 -10 6 0 10 5 10 10 0 6 -4 10 -10 10 -5 0
-10 -4 -10 -10z"/>
<path d="M3601 1993 c-19 -69 -12 -78 33 -42 28 22 35 59 11 59 -8 0 -15 5
-15 10 0 25 -20 6 -29 -27z"/>
<path d="M3446 1982 c-3 -5 1 -9 9 -9 8 0 12 4 9 9 -3 4 -7 8 -9 8 -2 0 -6 -4
-9 -8z"/>
<path d="M16258 1963 c12 -2 32 -2 45 0 12 2 2 4 -23 4 -25 0 -35 -2 -22 -4z"/>
<path d="M16258 1933 c12 -2 32 -2 45 0 12 2 2 4 -23 4 -25 0 -35 -2 -22 -4z"/>
<path d="M8565 1856 c-17 -12 -17 -17 -5 -60 12 -45 12 -47 -13 -70 -15 -14
-28 -40 -32 -62 -4 -22 -18 -70 -31 -109 -17 -46 -25 -91 -26 -137 0 -38 -4
-71 -9 -74 -13 -8 -11 -24 4 -24 6 0 23 26 36 58 31 72 41 84 41 46 0 -16 9
-60 19 -98 13 -48 17 -76 10 -93 -6 -18 -5 -23 6 -23 8 0 15 -4 15 -10 0 -5
-5 -10 -10 -10 -6 0 -28 -11 -50 -25 -22 -14 -40 -21 -40 -15 0 20 -29 9 -32
-12 -2 -12 -9 -23 -17 -26 -8 -3 -11 0 -7 7 5 7 1 9 -9 4 -13 -5 -14 -7 -3
-14 10 -7 9 -9 -5 -9 -10 0 -31 -7 -47 -15 -22 -11 -30 -12 -33 -2 -4 9 -8 8
-16 -3 -17 -24 -13 -29 31 -32 36 -3 43 -7 51 -33 6 -16 18 -41 28 -54 l19
-24 0 51 c0 56 7 62 75 62 l42 0 15 -52 15 -53 56 -3 c59 -3 77 11 30 23 -33
8 -43 21 -43 58 l0 27 2973 2 2972 3 -2962 2 -2963 3 -6 26 c-4 14 -1 44 6 67
15 51 21 413 8 482 -6 28 -17 61 -25 73 -13 22 -13 26 6 43 22 21 25 37 15 88
-6 27 -11 31 -38 31 -18 0 -41 -6 -51 -14z m-111 -757 c-15 -16 -24 -29 -19
-29 4 0 6 -2 3 -5 -7 -8 -38 5 -38 16 0 5 5 9 11 9 18 0 59 37 51 45 -4 5 -1
5 6 1 11 -6 7 -15 -14 -37z"/>
<path d="M14821 1829 c-23 -18 -23 -22 -11 -58 12 -37 11 -41 -19 -78 -33 -41
-43 -92 -56 -272 -3 -46 -11 -81 -20 -91 -22 -24 -18 -40 8 -37 19 2 22 -3 24
-38 1 -22 -1 -32 -4 -22 -8 29 -20 19 -15 -13 2 -18 0 -30 -7 -30 -6 0 -8 -6
-6 -12 3 -7 -8 -38 -25 -68 -16 -30 -39 -73 -51 -94 l-21 -40 26 -23 c15 -13
36 -23 47 -23 17 0 18 3 7 20 -19 30 20 94 61 98 33 4 38 11 19 30 -7 7 -8 12
-2 12 6 0 16 -10 22 -22 10 -22 11 -21 11 9 1 17 -5 33 -11 36 -10 3 -9 9 4
23 9 10 20 31 23 47 10 37 21 34 22 -5 1 -49 20 -122 32 -126 6 -2 11 -18 11
-35 0 -64 9 -77 51 -77 44 0 89 15 89 30 0 5 -10 10 -23 10 -29 0 -47 18 -47
47 l0 23 260 0 c220 0 260 2 260 14 0 22 -17 28 -24 9 -6 -15 -8 -15 -17 -3
-8 11 -12 12 -16 3 -7 -20 -429 -18 -448 1 -8 8 -21 47 -30 87 -9 41 -23 108
-32 149 -11 51 -16 111 -14 187 2 84 -1 125 -14 163 -16 47 -16 53 -1 69 22
24 21 90 -1 107 -24 18 -34 17 -62 -7z"/>
<path d="M3638 1823 c7 -3 16 -2 19 1 4 3 -2 6 -13 5 -11 0 -14 -3 -6 -6z"/>
<path d="M7933 1430 c0 -30 2 -43 4 -27 2 15 2 39 0 55 -2 15 -4 2 -4 -28z"/>
<path d="M7150 1423 c-51 -5 -80 -23 -37 -23 19 0 31 -7 38 -24 8 -17 17 -22
31 -18 18 4 19 2 13 -27 -7 -31 -6 -32 22 -25 38 9 37 8 38 67 0 51 -1 52 -30
53 -16 1 -50 -1 -75 -3z"/>
<path d="M7479 1288 c-1 -46 0 -93 1 -105 1 -18 -4 -23 -22 -24 -15 -1 -17 -3
-6 -6 9 -2 20 -12 24 -21 4 -9 8 -124 10 -255 1 -169 6 -242 14 -252 14 -17
50 -20 50 -5 0 6 23 10 50 10 28 0 50 -4 50 -9 0 -5 11 -11 24 -13 16 -3 23
-1 20 7 -4 8 3 11 19 8 18 -4 26 0 30 16 5 21 -14 46 -26 34 -8 -8 -8 -20 -16
244 -3 116 -9 214 -13 218 -3 3 -47 6 -97 6 -50 0 -91 5 -91 10 0 5 15 10 33
10 17 1 24 3 15 6 -13 3 -18 23 -24 104 -6 88 -9 99 -25 99 -17 0 -19 -9 -20
-82z m29 -5 l-2 -78 -5 70 c-3 39 -5 73 -3 78 9 20 12 0 10 -70z"/>
<path d="M9833 1285 c0 -8 4 -15 9 -15 4 0 8 4 8 9 0 6 -4 12 -8 15 -5 3 -9
-1 -9 -9z"/>
<path d="M9862 1280 c0 -14 2 -19 5 -12 2 6 2 18 0 25 -3 6 -5 1 -5 -13z"/>
<path d="M9883 1285 c0 -8 4 -12 9 -9 5 3 6 10 3 15 -9 13 -12 11 -12 -6z"/>
<path d="M6021 1274 c0 -11 3 -14 6 -6 3 7 2 16 -1 19 -3 4 -6 -2 -5 -13z"/>
<path d="M7971 1274 c0 -11 3 -14 6 -6 3 7 2 16 -1 19 -3 4 -6 -2 -5 -13z"/>
<path d="M11740 1278 c0 -4 6 -8 13 -9 6 0 3 -4 -8 -9 -19 -8 -19 -9 3 -9 15
-1 22 5 22 17 0 10 -7 19 -15 19 -8 0 -15 -4 -15 -9z"/>
<path d="M11791 1268 c-1 -16 4 -28 9 -28 12 0 12 8 0 35 -8 18 -9 17 -9 -7z"/>
<path d="M13655 1281 c12 -20 -27 -24 -234 -24 l-216 0 205 -7 c113 -3 206 -7
208 -8 2 -1 0 -6 -3 -12 -3 -5 -1 -10 4 -10 6 0 11 4 11 9 0 5 9 13 20 16 20
6 29 45 9 45 -5 0 -8 -4 -4 -9z"/>
<path d="M15020 1280 c0 -5 5 -10 11 -10 5 0 7 5 4 10 -3 6 -8 10 -11 10 -2 0
-4 -4 -4 -10z"/>
<path d="M8235 1258 c-9 -13 -46 -63 -82 -113 -35 -49 -67 -96 -70 -102 -4
-11 29 -45 79 -81 21 -16 30 -9 67 51 13 20 31 37 41 37 10 0 20 8 24 18 10
32 48 82 61 82 4 0 5 -7 1 -15 -7 -20 -4 -19 22 4 29 25 28 33 -5 26 l-28 -6
28 21 c22 18 25 25 16 36 -6 8 -16 14 -21 14 -6 0 -6 -6 1 -14 21 -25 -5 -26
-29 -1 -13 13 -26 22 -30 20 -4 -3 -15 6 -24 20 -20 31 -31 31 -51 3z"/>
<path d="M6040 1259 c0 -5 5 -7 10 -4 6 3 10 8 10 11 0 2 -4 4 -10 4 -5 0 -10
-5 -10 -11z"/>
<path d="M7930 1265 c0 -5 5 -17 10 -25 5 -8 10 -10 10 -5 0 6 -5 17 -10 25
-5 8 -10 11 -10 5z"/>
<path d="M6077 1253 c-4 -3 -7 -13 -7 -21 0 -18 13 -7 16 13 2 17 1 18 -9 8z"/>
<path d="M6106 1245 c-3 -8 -1 -15 4 -15 6 0 10 7 10 15 0 8 -2 15 -4 15 -2 0
-6 -7 -10 -15z"/>
<path d="M6138 1235 c-3 -14 -1 -25 3 -25 5 0 9 11 9 25 0 14 -2 25 -4 25 -2
0 -6 -11 -8 -25z"/>
<path d="M6620 1256 c0 -2 7 -7 16 -10 8 -3 12 -2 9 4 -6 10 -25 14 -25 6z"/>
<path d="M6666 1245 c4 -8 10 -15 15 -15 4 0 6 7 3 15 -4 8 -10 15 -15 15 -4
0 -6 -7 -3 -15z"/>
<path d="M6730 1243 c14 -9 28 -21 32 -27 4 -6 10 -8 13 -4 7 7 -43 48 -59 48
-6 0 1 -8 14 -17z"/>
<path d="M7080 1251 c0 -9 30 -24 36 -18 2 1 -6 8 -16 15 -11 7 -20 8 -20 3z"/>
<path d="M7140 1250 c-12 -8 -11 -10 8 -10 12 0 22 5 22 10 0 13 -11 13 -30 0z"/>
<path d="M7306 1240 c12 -14 24 -32 27 -40 5 -13 6 -13 6 1 1 8 -11 26 -26 40
l-28 24 21 -25z"/>
<path d="M7320 1256 c0 -2 6 -9 14 -15 10 -9 15 -8 19 2 3 8 -3 13 -14 14 -10
1 -19 0 -19 -1z"/>
<path d="M7451 1244 c0 -11 3 -14 6 -6 3 7 2 16 -1 19 -3 4 -6 -2 -5 -13z"/>
<path d="M7571 1244 c0 -11 3 -14 6 -6 3 7 2 16 -1 19 -3 4 -6 -2 -5 -13z"/>
<path d="M7841 1244 c0 -11 3 -14 6 -6 3 7 2 16 -1 19 -3 4 -6 -2 -5 -13z"/>
<path d="M7866 1243 c-6 -14 -5 -15 5 -6 7 7 10 15 7 18 -3 3 -9 -2 -12 -12z"/>
<path d="M8165 1236 c1 -12 6 -20 11 -18 5 2 8 10 6 19 -2 8 1 12 7 9 5 -4 12
-3 15 2 2 4 -5 8 -18 8 -16 0 -22 -5 -21 -20z"/>
<path d="M8346 1252 c-3 -5 1 -9 9 -9 8 0 12 4 9 9 -3 4 -7 8 -9 8 -2 0 -6 -4
-9 -8z"/>
<path d="M8680 1250 c0 -5 5 -10 10 -10 6 0 10 5 10 10 0 6 -4 10 -10 10 -5 0
-10 -4 -10 -10z"/>
<path d="M9771 1244 c0 -11 3 -14 6 -6 3 7 2 16 -1 19 -3 4 -6 -2 -5 -13z"/>
<path d="M10881 1244 c0 -11 3 -14 6 -6 3 7 2 16 -1 19 -3 4 -6 -2 -5 -13z"/>
<path d="M11356 1251 c-4 -5 3 -7 14 -4 23 6 26 13 6 13 -8 0 -17 -4 -20 -9z"/>
<path d="M11690 1250 c0 -5 5 -10 11 -10 5 0 7 5 4 10 -3 6 -8 10 -11 10 -2 0
-4 -4 -4 -10z"/>
<path d="M12473 1248 c16 -10 164 -10 170 0 3 4 -37 7 -88 7 -51 0 -88 -3 -82
-7z"/>
<path d="M12670 1245 c0 -9 5 -15 11 -13 6 2 11 8 11 13 0 5 -5 11 -11 13 -6
2 -11 -4 -11 -13z"/>
<path d="M13690 1250 c0 -5 5 -10 10 -10 6 0 10 5 10 10 0 6 -4 10 -10 10 -5
0 -10 -4 -10 -10z"/>
<path d="M13748 1253 c-19 -5 -25 -33 -7 -33 5 0 8 3 6 8 -3 4 34 7 81 6 l87
-1 -80 6 -80 5 125 6 125 6 -120 1 c-66 0 -128 -1 -137 -4z"/>
<path d="M14098 1253 c12 -2 32 -2 45 0 12 2 2 4 -23 4 -25 0 -35 -2 -22 -4z"/>
<path d="M15018 1253 c7 -3 16 -2 19 1 4 3 -2 6 -13 5 -11 0 -14 -3 -6 -6z"/>
<path d="M5725 1230 c-3 -11 -15 -20 -26 -20 -19 0 -19 0 1 -20 11 -11 20 -29
20 -41 0 -30 18 -59 37 -59 15 0 15 1 0 13 -14 10 -15 18 -8 45 7 22 6 30 -1
26 -7 -4 -7 0 0 13 12 21 5 63 -8 63 -5 0 -12 -9 -15 -20z"/>
<path d="M7060 1235 c7 -8 17 -15 22 -15 5 0 3 7 -6 15 -8 8 -18 15 -22 15 -3
0 -1 -7 6 -15z"/>
<path d="M8711 1234 c0 -11 3 -14 6 -6 3 7 2 16 -1 19 -3 4 -6 -2 -5 -13z"/>
<path d="M9790 1239 c0 -5 5 -7 10 -4 6 3 10 8 10 11 0 2 -4 4 -10 4 -5 0 -10
-5 -10 -11z"/>
<path d="M9883 1235 c-3 -9 -3 -18 -1 -21 3 -3 8 4 11 16 6 23 -1 27 -10 5z"/>
<path d="M9940 1240 c0 -5 5 -10 10 -10 6 0 10 5 10 10 0 6 -4 10 -10 10 -5 0
-10 -4 -10 -10z"/>
<path d="M5818 1233 c34 -2 90 -2 125 0 34 2 6 3 -63 3 -69 0 -97 -1 -62 -3z"/>
<path d="M6605 1230 c-3 -5 -1 -10 4 -10 6 0 11 5 11 10 0 6 -2 10 -4 10 -3 0
-8 -4 -11 -10z"/>
<path d="M9820 1224 c0 -8 5 -12 10 -9 6 4 8 11 5 16 -9 14 -15 11 -15 -7z"/>
<path d="M14018 1233 c12 -2 32 -2 45 0 12 2 2 4 -23 4 -25 0 -35 -2 -22 -4z"/>
<path d="M11768 1223 c7 -3 16 -2 19 1 4 3 -2 6 -13 5 -11 0 -14 -3 -6 -6z"/>
<path d="M12518 1223 c23 -2 61 -2 85 0 23 2 4 4 -43 4 -47 0 -66 -2 -42 -4z"/>
<path d="M6813 1213 c15 -2 39 -2 55 0 15 2 2 4 -28 4 -30 0 -43 -2 -27 -4z"/>
<path d="M7540 1205 c0 -17 35 -38 70 -42 23 -3 23 -2 -5 11 -16 8 -24 15 -17
15 6 1 12 6 12 12 0 5 -4 8 -9 5 -5 -4 -12 0 -14 6 -3 8 -6 6 -6 -4 -1 -10 -6
-18 -12 -18 -6 0 -9 7 -5 15 3 8 1 15 -4 15 -6 0 -10 -7 -10 -15z"/>
<path d="M6574 1194 c3 -7 0 -14 -6 -14 -6 0 -9 -2 -7 -5 3 -2 17 -1 32 3 l26
7 -25 12 c-22 10 -25 10 -20 -3z"/>
<path d="M7672 1194 c-10 -11 -8 -15 9 -25 14 -7 24 -8 31 -1 12 12 30 -1 41
-28 3 -8 5 3 4 24 -1 23 -8 41 -16 44 -9 3 -11 0 -6 -8 5 -9 2 -10 -14 -5 -16
5 -21 2 -22 -12 -1 -15 -2 -14 -7 3 -6 18 -9 20 -20 8z"/>
<path d="M8107 1189 c-11 -15 -16 -17 -20 -7 -3 7 -3 0 -2 -17 2 -16 4 -36 4
-42 1 -7 6 -13 12 -13 5 0 7 5 4 10 -3 6 -3 15 1 21 4 8 8 8 13 0 4 -6 12 -2
20 12 13 20 13 21 -2 8 -10 -7 -17 -9 -17 -3 0 12 25 34 32 27 2 -3 5 2 5 10
0 12 -6 10 -24 -7 -23 -22 -34 -13 -11 10 7 7 9 12 6 12 -4 0 -13 -9 -21 -21z
m-6 -42 c-10 -9 -11 -8 -5 6 3 10 9 15 12 12 3 -3 0 -11 -7 -18z"/>
<path d="M8492 1206 c4 -5 3 -15 -3 -22 -7 -9 -6 -12 5 -10 25 3 28 12 9 27
-10 7 -15 9 -11 5z"/>
<path d="M14623 1203 c-7 -3 -13 -12 -13 -20 0 -13 3 -13 15 -3 8 7 15 9 15 5
0 -4 7 -2 16 6 13 10 17 10 25 -2 12 -20 11 -37 -2 -19 -8 11 -12 12 -16 2 -2
-6 -8 -10 -12 -8 -4 3 -7 -4 -7 -15 0 -19 1 -19 13 -3 15 20 31 12 17 -9 -5
-7 1 -1 13 13 13 14 19 26 13 28 -5 2 -7 9 -4 16 5 12 -44 18 -73 9z"/>
<path d="M7450 1180 c-13 -8 -12 -10 3 -10 9 0 17 5 17 10 0 12 -1 12 -20 0z"/>
<path d="M5820 1168 c0 -12 17 -18 34 -12 25 10 19 24 -9 22 -14 -1 -25 -6
-25 -10z"/>
<path d="M6598 1163 c7 -3 16 -2 19 1 4 3 -2 6 -13 5 -11 0 -14 -3 -6 -6z"/>
<path d="M7770 1151 c0 -11 5 -23 10 -26 6 -4 8 -11 5 -16 -4 -5 -2 -9 3 -9
12 0 22 38 15 56 -8 21 -33 17 -33 -5z"/>
<path d="M6568 1138 c3 -13 8 -15 16 -9 7 6 23 7 36 4 15 -4 21 -2 17 4 -4 6
-22 13 -40 15 -29 3 -33 1 -29 -14z"/>
<path d="M8711 1144 c0 -11 3 -14 6 -6 3 7 2 16 -1 19 -3 4 -6 -2 -5 -13z"/>
<path d="M6770 1133 c0 -15 -9 -18 -65 -17 -49 1 -63 -2 -55 -11 10 -12 6 -15
-60 -44 -20 -9 -10 -10 57 -8 44 1 79 5 76 10 -2 4 -21 7 -41 7 -34 0 -35 1
-17 14 33 22 69 26 110 11 36 -13 37 -14 13 -15 -20 0 -28 -5 -27 -17 0 -11 3
-13 6 -5 2 6 12 12 21 12 12 0 13 -3 5 -8 -8 -5 2 -8 25 -8 20 -1 29 1 20 3
-10 3 -18 9 -18 14 0 13 24 11 38 -3 14 -14 60 -20 87 -11 17 6 14 8 -15 15
-25 5 -20 6 18 2 29 -3 58 -1 65 3 18 11 96 13 102 3 4 -6 -6 -10 -22 -11 -55
-2 -105 -8 -111 -14 -7 -7 76 -4 113 4 17 4 29 13 27 20 -1 7 2 19 8 26 16 19
-1 25 -46 15 -62 -15 -132 -11 -222 10 -100 24 -92 24 -92 3z"/>
<path d="M5764 1131 c4 -6 19 -11 34 -11 25 0 25 -1 6 -15 -10 -8 -14 -15 -8
-15 5 0 15 5 21 11 20 20 46 2 40 -27 -3 -17 -1 -22 5 -16 6 6 7 23 4 39 -5
20 -13 28 -29 29 -12 0 -35 4 -51 9 -21 6 -27 5 -22 -4z"/>
<path d="M5900 1125 c0 -8 2 -15 4 -15 2 0 6 7 10 15 3 8 1 15 -4 15 -6 0 -10
-7 -10 -15z"/>
<path d="M7453 1095 c0 -27 2 -38 4 -22 2 15 2 37 0 50 -2 12 -4 0 -4 -28z"/>
<path d="M7150 1126 c0 -2 8 -10 18 -17 15 -13 16 -12 3 4 -13 16 -21 21 -21
13z"/>
<path d="M7377 1118 c4 -7 6 -23 5 -34 -2 -15 4 -23 19 -27 12 -3 26 -4 31 -1
15 10 5 74 -12 74 -4 0 -6 -11 -5 -25 2 -14 0 -25 -5 -25 -4 0 -11 11 -14 25
-4 14 -11 25 -17 25 -6 0 -7 -6 -2 -12z"/>
<path d="M14823 1100 c4 -18 7 -36 7 -41 0 -5 5 -9 11 -9 15 0 6 73 -10 78
-11 4 -13 -3 -8 -28z"/>
<path d="M5881 1088 c-1 -21 3 -38 8 -38 13 0 23 32 13 39 -5 3 -12 13 -15 21
-3 8 -6 -2 -6 -22z"/>
<path d="M8065 1090 c4 -6 11 -8 16 -5 14 9 11 15 -7 15 -8 0 -12 -5 -9 -10z"/>
<path d="M6726 1082 c6 -4 14 -14 17 -22 4 -10 6 -8 6 8 1 15 -5 22 -16 22
-11 0 -14 -3 -7 -8z"/>
<path d="M14595 1068 c-14 -17 -13 -18 13 -18 15 0 32 8 38 18 9 14 7 17 -12
17 -13 0 -31 -8 -39 -17z"/>
<path d="M7820 1065 c-11 -13 -1 -15 86 -13 92 2 94 2 24 5 -41 2 -79 8 -86
14 -7 6 -16 4 -24 -6z"/>
<path d="M5910 1058 c0 -5 147 -7 328 -6 180 1 289 3 242 5 -208 7 -570 7
-570 1z"/>
<path d="M8020 1060 c0 -5 9 -10 21 -10 11 0 17 5 14 10 -3 6 -13 10 -21 10
-8 0 -14 -4 -14 -10z"/>
<path d="M7142 1046 c7 -8 15 -12 17 -11 5 6 -10 25 -20 25 -5 0 -4 -6 3 -14z"/>
<path d="M7169 1033 c-4 -56 -4 -56 -80 -33 -92 29 -105 24 -108 -46 -1 -32 7
-88 20 -131 17 -62 19 -80 9 -98 -7 -13 -9 -28 -5 -34 4 -7 -9 -18 -34 -29
-26 -11 -40 -23 -38 -32 2 -12 19 -15 86 -13 46 1 87 6 90 11 8 12 180 47 189
37 4 -4 -3 -14 -15 -22 -26 -18 -30 -43 -7 -43 8 0 23 -7 32 -16 11 -12 17
-13 20 -5 3 9 7 9 18 1 14 -12 34 -6 34 10 0 5 -8 6 -17 3 -15 -6 -14 -3 3 23
11 16 28 48 37 72 9 23 24 59 32 80 24 58 22 138 -2 165 -12 12 -30 41 -42 65
-20 40 -25 43 -52 37 -16 -4 -45 -1 -65 5 -29 10 -41 10 -61 -1 -20 -11 -26
-11 -33 1 -8 12 -10 10 -11 -7z m-38 -220 c-25 -19 -41 -15 -41 11 0 13 -3 33
-7 43 -5 13 3 10 28 -12 31 -26 33 -32 20 -42z"/>
<path d="M5494 966 c-3 -9 -3 -31 0 -50 5 -24 2 -37 -9 -46 -8 -7 -15 -19 -15
-27 0 -8 -16 -29 -35 -46 -40 -35 -44 -56 -15 -82 18 -17 21 -17 45 -1 14 9
39 36 55 59 64 91 66 92 94 79 23 -10 26 -17 26 -67 0 -60 13 -75 48 -56 14 7
21 25 26 65 6 51 4 59 -28 109 -40 62 -42 63 -125 73 -51 5 -62 4 -67 -10z"/>
<path d="M16818 973 c12 -2 32 -2 45 0 12 2 2 4 -23 4 -25 0 -35 -2 -22 -4z"/>
<path d="M5345 688 c-15 -14 -17 -23 -9 -36 14 -21 73 -62 90 -62 19 0 18 25
-1 40 -8 7 -15 18 -14 24 3 23 -1 39 -8 33 -3 -4 -13 -1 -22 7 -14 12 -19 11
-36 -6z"/>
<path d="M5663 703 c-18 -3 -23 -11 -23 -37 l0 -32 67 11 c65 11 100 35 51 35
-13 0 -33 7 -44 15 -10 8 -21 14 -24 13 -3 0 -15 -3 -27 -5z"/>
<path d="M3840 380 c0 -5 25 -10 56 -10 34 0 53 4 49 10 -3 6 -28 10 -56 10
-27 0 -49 -4 -49 -10z"/>
<path d="M4000 382 c0 -5 7 -9 15 -9 8 0 12 4 9 9 -3 4 -9 8 -15 8 -5 0 -9 -4
-9 -8z"/>
<path d="M7401 374 c0 -11 3 -14 6 -6 3 7 2 16 -1 19 -3 4 -6 -2 -5 -13z"/>
<path d="M7502 350 c0 -14 2 -19 5 -12 2 6 2 18 0 25 -3 6 -5 1 -5 -13z"/>
<path d="M5640 320 c0 -5 5 -10 10 -10 6 0 10 5 10 10 0 6 -4 10 -10 10 -5 0
-10 -4 -10 -10z"/>
<path d="M7040 310 c0 -5 4 -10 9 -10 6 0 13 5 16 10 3 6 -1 10 -9 10 -9 0
-16 -4 -16 -10z"/>
<path d="M7710 300 c0 -5 5 -10 10 -10 6 0 10 5 10 10 0 6 -4 10 -10 10 -5 0
-10 -4 -10 -10z"/>
<path d="M15520 300 c0 -5 7 -10 15 -10 8 0 15 5 15 10 0 6 -7 10 -15 10 -8 0
-15 -4 -15 -10z"/>
</g>
</svg>
